<?xml version="1.0" standalone="no"?>
<!DOCTYPE svg PUBLIC "-//W3C//DTD SVG 1.1//EN" "http://www.w3.org/Graphics/SVG/1.1/DTD/svg11.dtd" >
<svg xmlns="http://www.w3.org/2000/svg">
<metadata>
This is a custom SVG font generated by IcoMoon.
<iconset id="Basis-Icons" name="ccv icons" href="http://f-d.com.au" grid="20"></iconset><author name="Heath Taskis" href="http://f-d.com.au"></author><license name="Creative Commons" href="https://www.google.com.au/url?sa=t&amp;rct=j&amp;q=&amp;esrc=s&amp;source=web&amp;cd=2&amp;cad=rja&amp;ved=0CD4QFjAB&amp;url=http%3A%2F%2Fcreativecommons.org%2F&amp;ei=O0zuUNyEFa2amQWQx4GwDg&amp;usg=AFQjCNHIjGrbyNWoZzZAeS9SG1rGxQ5CQw&amp;bvm=bv.1357700187,d.dGY"></license>
</metadata>
<defs>
<font id="Basis-Icons" horiz-adv-x="640" >
<font-face units-per-em="640" ascent="608" descent="-32" />
<missing-glyph horiz-adv-x="640" />
<glyph class="hidden" unicode="&#xf000;" d="M0,608L 640 -32L0 -32 z" horiz-adv-x="0" />
<glyph unicode="&#xe000;" d="M 609.98,287.96c0,28.030-4.050,55.080-11.46,80.7c 25.59,25.39, 41.46,60.51, 41.46,99.31
		c0,77.19-62.81,139.99-140.010,139.99c-38.78,0-73.83-15.92-99.19-41.49c-25.65,7.43-52.74,11.49-80.8,11.49
		c-28.010,0-55.050-4.050-80.66-11.46c-25.38,25.58-60.51,41.46-99.31,41.46c-77.19,0-139.99-62.8-139.99-139.99
		c0-38.78, 15.9-73.84, 41.46-99.21c-7.43-25.66-11.49-52.75-11.49-80.8c0-93.89, 44.66-177.3, 113.84-230.29l-34.83-59.53
		c-5.59-9.53-2.38-21.78, 7.15-27.36c 3.18-1.86, 6.66-2.73, 10.090-2.73c 6.88,0, 13.55,3.54, 17.28,9.9l 33.73,57.62
		c 42.16-23.89, 90.84-37.6, 142.75-37.6c 50.39,0, 97.76,12.87, 139.050,35.47l 32.49-55.49c 3.72-6.37, 10.4-9.9, 17.28-9.9
		c 3.43,0, 6.91,0.88, 10.090,2.73c 9.53,5.59, 12.73,17.83, 7.15,27.36l-33.31,56.89C 563.87,107.88, 609.98,192.53, 609.98,287.96z
		 M 499.97,567.97c 55.15,0, 100.010-44.85, 100.010-99.99c0-20.94-6.6-40.28-17.68-56.34c-28.71,60.79-77.91,109.98-138.7,138.68
		C 459.67,561.37, 479.030,567.97, 499.97,567.97z M 40.020,467.98c0,55.14, 44.85,99.99, 99.99,99.99c 20.93,0, 40.27-6.6, 56.33-17.66
		C 135.51,521.59, 86.3,472.36, 57.6,411.52C 46.54,427.59, 40.020,447.030, 40.020,467.98z M 319.98,37.96c-137.85,0-250,112.15-250,250
		c0,137.86, 112.15,250, 250,250s 250-112.15, 250-250C 569.98,150.11, 457.83,37.96, 319.98,37.96zM 319.98,497.97c-11.040,0-20-8.96-20-20l0-181.72 L 195.84,192.1c-7.81-7.81-7.81-20.47,0-28.28
		c 3.91-3.91, 9.020-5.86, 14.14-5.86s 10.23,1.95, 14.14,5.86l 110,110c 3.75,3.75, 5.86,8.85, 5.86,14.14l0,190 
		C 339.98,489.010, 331.030,497.97, 319.98,497.97z" data-tags="alarm" />
<glyph unicode="&#xe001;" d="M 324.56,338c-27.61,0-50.010-22.38-50.010-50s 22.4-50, 50.010-50c 27.6,0, 49.99,22.38, 49.99,50S 352.15,338, 324.56,338z
		 M 324.56,258c-16.55,0-30.010,13.46-30.010,30s 13.46,30, 30.010,30c 16.53,0, 29.99-13.46, 29.99-30S 341.090,258, 324.56,258zM 531.090,288.16c 61.45,65.12, 89.14,128.96, 65.38,167.56c-13.87,22.54-43.28,33.32-82.43,33.32
		c-24.72-0.020-53.35-4.38-84.38-12.75C 406.040,556.11, 367.8,608, 324.56,608c-43.27,0-81.47-52.030-105.1-131.89
		c-31.39,8.52-60.34,12.93-85.32,12.93c-39.14,0-68.55-10.78-82.42-33.32c-23.76-38.59, 3.98-102.4, 65.4-167.52
		c-61.67-65.23-89.5-129.24-65.69-167.93c 13.87-22.52, 43.26-33.28, 82.4-33.28c 25.010,0, 54.060,4.51, 85.51,13.090
		c 23.61-80, 61.9-132.070, 105.22-132.070c 43.23,0, 81.42,51.97, 105.030,131.76c 31.17-8.42, 59.94-12.77, 84.78-12.77
		c 39.14,0, 68.54,10.76, 82.4,33.28C 620.56,158.96, 592.74,222.92, 531.090,288.16z M 514.060,449.040c 24.4,0, 42.93-5.47, 48.35-14.28
		c 7.030-11.43, 0.54-41.46-29.81-82.79c-19.89-27.090-46.74-54.57-78.35-80.96c 0.13,5.64, 0.3,11.27, 0.3,16.99
		c0,54-5.45,104.84-15.040,149.47C 466.92,444.93, 492.31,449.020, 514.060,449.040z M 277.080,211.36c-14.3,8.79-27.82,18.050-41.010,27.44
		c-0.99,15.66-1.52,32.070-1.52,49.2c0,17.46, 0.62,34.040, 1.64,49.94c 12.67,8.93, 26.18,17.85, 40.59,26.72
		c 15.72,9.67, 31.65,18.38, 47.58,26.6c 15.76-8.14, 31.51-17.030, 47.060-26.6c 14.84-9.14, 28.63-18.34, 41.61-27.54
		c 0.99-15.63, 1.52-32.010, 1.52-49.12c0-17.010-0.57-33.24-1.55-48.77c-13.44-9.57-27.34-18.93-41.88-27.87
		c-15.57-9.59-31.35-18.38-47.12-26.54C 308.28,192.96, 292.57,201.83, 277.080,211.36z M 324.56,568c 24.28,0, 66.79-62.48, 83.21-179.080
		c-5.080,3.3-10.17,6.58-15.39,9.8c-45.96,28.28-92.050,50.23-135.050,65.47C 277.39,532.12, 306.19,568, 324.56,568z M 85.78,434.76
		c 5.42,8.81, 23.96,14.28, 48.36,14.28c 39.54,0, 91.030-13.3, 145.12-36.46c-7.81-4.43-15.63-9.040-23.45-13.85
		c-41.77-25.7-78.96-53.87-110.16-82.46c-11.19,11.89-21.34,23.85-30.060,35.7C 85.24,393.29, 78.75,423.33, 85.78,434.76z
		 M 133.82,126.98c-24.4,0-42.93,5.47-48.34,14.26c-12.74,20.7, 18.34,89.9, 109.41,165.18c-0.15-6.11-0.35-12.21-0.35-18.42
		c0-53.87, 5.43-104.61, 14.97-149.16C 181.67,131.18, 155.87,126.98, 133.82,126.98z M 324.56,8c-24.25,0-66.69,62.34-83.17,178.67
		c 4.86-3.14, 9.73-6.31, 14.73-9.38c 46.17-28.42, 92.5-50.47, 135.67-65.7C 371.72,43.74, 342.92,8, 324.56,8z M 562.7,141.24
		c-5.41-8.79-23.94-14.26-48.34-14.26c-39.64,0-91.28,13.36-145.51,36.62c 7.73,4.41, 15.48,8.93, 23.22,13.69
		c 42,25.84, 79.4,54.18, 110.69,82.95C 555.38,204.27, 572.77,157.61, 562.7,141.24z" data-tags="atom" />
<glyph unicode="&#xe002;" d="M 574.5,534l-24.76,24.75c-23.6,23.61-55,36.62-88.38,36.62c-33.39,0-64.79-13.010-88.39-36.62l-148.5-148.5
	c-23.18-23.18-36.18-54-36.61-86.78c-0.030-2.77, 0.5-5.41, 1.49-7.83L 79.8,206.070c-23.61-23.59-36.61-55-36.62-88.38
	c0-33.38, 13.010-64.79, 36.62-88.38l 24.75-24.77C 128.93-19.81, 160.93-32, 192.94-32s 64.020,12.19, 88.39,36.54l 148.49,148.5
	c 25.12,25.12, 38.4,59.84, 36.44,95.31c-0.010,0.2-0.070,0.35-0.090,0.53L 574.5,357.22C 623.24,405.97, 623.24,485.27, 574.5,534z
	 M 546.22,385.5L 397.72,237c-33.14-33.13-87.070-33.13-120.21,0l-24.75,24.75c-7.81,7.81-20.47,7.81-28.28,0
	c-7.81-7.79-7.81-20.47,0-28.28l 24.75-24.75c 24.37-24.36, 56.38-36.54, 88.39-36.54c 27.38,0, 54.73,8.98, 77.32,26.82
	c-3.68-6.39-8.11-12.36-13.41-17.68l-148.49-148.5c-33.14-33.13-87.070-33.13-120.21,0l-24.75,24.77
	c-16.050,16.050-24.9,37.4-24.9,60.1s 8.85,44.040, 24.9,60.1l 148.49,148.5c 33.14,33.14, 87.070,33.13, 120.21,0l 24.75-24.75
	c 7.81-7.81, 20.47-7.81, 28.28,0s 7.81,20.47,0,28.28l-24.75,24.77c-45.25,45.23-116.84,48.4-165.85,9.61
	c 3.69,6.43, 8.18,12.42, 13.54,17.77l 148.5,148.5c 16.050,16.050, 37.4,24.9, 60.11,24.9c 22.7,0, 44.040-8.85, 60.1-24.9l 24.76-24.75
	C 579.36,472.57, 579.36,418.64, 546.22,385.5z" data-tags="attachment" />
<glyph unicode="&#xe003;" d="M 459.96,468c0,77.2-62.8,140-140,140s-140-62.8-140-140L 60,468 l0-440 c0-33.13, 26.87-60, 60-60l 400,0 c 33.13,0, 60,26.87, 60,60L 580,468 L 459.96,468 
	z M 319.96,568c 55.14,0, 100-44.85, 100-100l-200,0 C 219.96,523.15, 264.82,568, 319.96,568z M 540,28c0-11.030-8.97-20-20-20L 120,8 c-11.030,0-20,8.97-20,20L 100,428 
	l 79.96,0 l0-50.010 c0-11.040, 8.96-20, 20-20s 20,8.96, 20,20L 219.96,428 l 200,0 l0-50.010 c0-11.040, 8.96-20, 20-20s 20,8.96, 20,20L 459.96,428 L 540,428 L 540,28 z" data-tags="bag" />
<glyph unicode="&#xe004;" d="M 380.47,507.96c 27.61,0, 50,22.4, 50,50c0,27.62-22.39,50-50,50s-50-22.38-50-50
		C 330.47,530.36, 352.86,507.96, 380.47,507.96z M 380.47,587.96c 16.54,0, 30-13.46, 30-30s-13.46-30-30-30s-30,13.46-30,30
		S 363.93,587.96, 380.47,587.96zM 270.44,478.080c 22.070,0, 39.99,17.91, 39.99,40s-17.92,39.98-39.99,39.98c-22.090,0-40.010-17.89-40.010-39.98
		S 248.35,478.080, 270.44,478.080z M 270.44,538.060c 11.030,0, 19.99-8.95, 19.99-19.98c0-11.020-8.96-20-19.99-20
		c-11.040,0-20.010,8.98-20.010,20C 250.43,529.11, 259.4,538.060, 270.44,538.060zM 551.23,33.040l-160.8,200.94L 390.43,418 l 0.040,0 c 11.040,0, 20,8.95, 20,20c0,11.040-8.96,20-20,20L 250.43,458 
		c-11.040,0-20-8.96-20-20c0-11.050, 8.96-20, 20-20l0-182.95 L 88.77,33.040c-9.61-12.010-11.48-28.46-4.82-42.32
		c 6.66-13.85, 20.67-22.68, 36.050-22.68l 400,0 c 15.38,0, 29.39,8.83, 36.050,22.68C 562.71,4.58, 560.84,21.030, 551.23,33.040z
		 M 290.43,221.010L 290.43,418 l 60,0 l0-198.070 l 57.6-71.97L 231.97,147.96 L 290.43,221.010z M 120,8.040l 79.96,99.92l 240.080,0 L 520,8.040L 120,8.040 z" data-tags="beaker" />
<glyph unicode="&#xe005;" d="M 561.65,179.080c-25.7,19.3-61.67,38.75-61.67,89.090l0,40 c0,66.54-36.21,124.51-89.9,155.66L 410.080,518.18 
		c0,49.7-40.29,90-90,90c-49.7,0-90-40.3-90-90l0-54.23 c-53.81-31.11-90.1-89.15-90.1-155.78l0-40 c0-50.54-36.25-69.94-61.97-89.32
		c-4.57-2.89-8.7-6.38-12.32-10.36c-0.11-0.11-0.23-0.21-0.34-0.31c0,0, 0.040-0.010, 0.050-0.010
		c-9.53-10.63-15.37-24.61-15.37-40l0-79.92 c0-11.040, 8.96-20, 20-20l 178.92,0 c 4.68-34.11, 33.87-60.43, 69.29-60.43
		c 35.39,0, 64.57,26.32, 69.25,60.43l 182.51,0 c 11.040,0, 20,8.96, 20,20l0,80.69 C 589.71,150.12, 578.44,168.62, 561.65,179.080z M 270.080,518.18
		c0,27.57, 22.43,50, 50,50s 50-22.43, 50-50l0-37.22 c-15.92,4.61-32.7,7.21-50.1,7.21c-17.33,0-34.040-2.59-49.9-7.16L 270.080,518.18 z
		 M 318.22-12.18c-24.3,0-44.57,17.43-49.050,40.43l 98.070,0 C 362.75,5.25, 342.51-12.18, 318.22-12.18z M 549.98,68.25L 90.020,68.25 l0,59.92 
		c0,6.19, 2.74,10.6, 5.080,13.21l 0.18,0.2c 1.24,1.36, 2.63,2.53, 4.14,3.49l 1.37,0.87l 1.29,0.97
		c 2.76,2.090, 5.66,4.17, 8.62,6.29c 25.92,18.63, 69.29,49.82, 69.29,114.98l0,40 c0,77.2, 62.8,140, 140,140s 140-62.8, 140-140l0-40 
		c0-65.17, 43.37-96.35, 69.29-114.98c 2.87-2.060, 5.67-4.080, 8.37-6.090l 1.39-1.040l 1.46-0.92
		c 5.8-3.61, 9.35-9.78, 9.49-16.51L 549.99,68.25 zM 352.99,413.11c-5.28,1.68-10.88-1.25-12.55-6.52c-1.66-5.27, 1.27-10.88, 6.53-12.54
		c 28.030-8.84, 50.030-30.84, 58.87-58.87c 1.35-4.27, 5.29-6.99, 9.54-6.99c 1,0, 2.010,0.15, 3.010,0.47
		c 5.26,1.66, 8.19,7.27, 6.53,12.54C 414.11,375.44, 387.23,402.33, 352.99,413.11z" data-tags="bell" />
<glyph unicode="&#xe006;" d="M 520,356.13c-14.040,0-27.46-2.54-39.98-6.97l-28.22,64.76l-16.62,42.22l 54.79,0 c 6.56,0, 11.7-2.020, 15.29-6
	c 3.14-3.51, 4.96-8.54, 4.96-13.82c0-7.5-4.26-20.18-20.25-20.18c-5.53,0-10-4.48-10-10s 4.47-10, 10-10
	c 15.47,0, 24.92,6.95, 30.12,12.79c 6.54,7.32, 10.14,17.050, 10.14,27.39c0,19.79-13.83,39.82-40.25,39.82l-90,0 c-5.53,0-10-4.48-10-10
	s 4.47-10, 10-10l 13.71,0 l 14.26-36.2L 246.74,419.94 l-20.96,46.2l 34.18,0 c 5.53,0, 10,4.48, 10,10s-4.47,10-10,10L 160,486.14 c-5.53,0-10-4.48-10-10s 4.47-10, 10-10
	l 43.83,0 l 24.34-53.61l-49.39-71.82c-17.38,9.79-37.4,15.43-58.77,15.43c-66.27,0-120-53.73-120-120c0-66.28, 53.73-120, 120-120
	c 62.7,0, 114.080,48.080, 119.47,109.37l 41.91,0 c 4.45-17.23, 19.98-30, 38.57-30c 22.090,0, 40,17.91, 40,40c0,10.57-4.18,20.1-10.86,27.25
	l 91.37,127.080l 21.29-48.81C 424.94,320.51, 400,281.26, 400,236.13c0-66.28, 53.73-120, 120-120c 66.29,0, 120,53.72, 120,120
	C 640,302.4, 586.29,356.13, 520,356.13z M 423.13,399.93l-91-126.52c-3.85,1.24-7.89,2.090-12.17,2.090
	c-2.5,0-4.94-0.29-7.32-0.74l-56.82,125.18L 423.13,399.94 z M 237.81,391.25l 56.76-125.090c-6.37-5.27-11.050-12.42-13.18-20.66l-41.86,0 
	c-2.62,33.9-19.26,63.84-44.2,83.99L 237.81,391.25z M 199.41,245.5l-61.84,0 l 34.94,50.83C 187.11,283.58, 197.030,265.7, 199.41,245.5z
	 M 120,156.13c-44.1,0-80,35.89-80,80s 35.9,80, 80,80c 12.93,0, 25.12-3.15, 35.94-8.63l-45.63-66.34c-2.090-3.060-2.32-7.030-0.61-10.31
	c 1.74-3.3, 5.14-5.35, 8.85-5.35l 80.66,0 C 193.98,186.41, 160.51,156.13, 120,156.13z M 319.96,215.5c-11.020,0-20,8.96-20,20s 8.98,20, 20,20
	c 11.040,0, 20-8.96, 20-20S 331,215.5, 319.96,215.5z M 520,156.13c-44.1,0-80,35.89-80,80c0,28.64, 15.2,53.74, 37.87,67.89l 31.62-72.52
	c 1.64-3.76, 5.31-6.010, 9.18-6.010c 1.33,0, 2.68,0.26, 3.98,0.84c 5.060,2.21, 7.38,8.090, 5.18,13.15l-31.82,72.96
	c 7.58,2.39, 15.64,3.68, 23.98,3.68c 44.12,0, 80-35.89, 80-80S 564.12,156.13, 520,156.13z" data-tags="bike" />
<glyph unicode="&#xe007;" d="M 580,469.92L 437.62,469.92 C 426.55,524.77, 378.11,566.080, 320,566.080s-106.55-41.31-117.62-96.16L 60,469.92 c-33.13,0-60-26.87-60-60
	l0-340 c0-33.13, 26.87-60, 60-60l 520,0 c 33.13,0, 60,26.88, 60,60l0,340 C 640,443.050, 613.13,469.92, 580,469.92z M 320,526.080c 35.81,0, 66.2-23.66, 76.37-56.16
	L 243.63,469.92 C 253.8,502.42, 284.19,526.080, 320,526.080z M 600,69.91c0-11.020-8.97-20-20-20L 60,49.91 c-11.030,0-20,8.98-20,20L 40,261.26 l 215.42-46.88
	c 4.18-0.98, 8.7-1.89, 13.33-2.78l0-12.99 c0-16.56, 13.43-30, 30-30l 40,0 c 16.57,0, 30,13.44, 30,30l0,12.3 c 1.85,0.37, 3.64,0.63, 5.52,1.060
	L 600,261.24L 600,69.91 z M 288.75,198.61l0,60 c0,5.52, 4.48,10, 10,10l 40,0 c 5.52,0, 10-4.48, 10-10l0-60 c0-5.51-4.48-10-10-10l-40,0 
	C 293.23,188.61, 288.75,193.1, 288.75,198.61z M 600,302.2l-231.25-50.49l0,6.89 c0,16.57-13.43,30-30,30l-40,0 c-16.57,0-30-13.43-30-30l0-6.17 
	c-1.49,0.33-3.090,0.63-4.54,0.96L 40,302.2L 40,409.92 c0,11.030, 8.97,20, 20,20l 520,0 c 11.030,0, 20-8.97, 20-20L 600,302.2 z" data-tags="briefcase" />
<glyph unicode="&#xe008;" d="M 623.31,600.42c-6.9,4.97-15.1,7.54-23.39,7.54c-4.25,0-8.53-0.68-12.66-2.060L 419.29,549.87
	l-187.86,56.4c-3.75,1.13-7.63,1.69-11.5,1.69c-4.28,0-8.55-0.69-12.66-2.060l-179.84-60
	c-16.33-5.45-27.34-20.73-27.34-37.94l0-499.92 c0-12.86, 6.18-24.94, 16.62-32.46c 6.89-4.97, 15.1-7.54, 23.38-7.54
	c 4.26,0, 8.53,0.68, 12.66,2.060l 167.83,55.99l 187.9-56.36c 3.75-1.12, 7.63-1.68, 11.49-1.68c 4.28,0, 8.54,0.69, 12.66,2.060
	l 179.96,60c 16.33,5.44, 27.34,20.73, 27.34,37.94L 639.93,567.96 C 639.92,580.82, 633.74,592.9, 623.31,600.42z M 239.61,562.050L 399.65,514l0-499.87 
	l-160.040,48L 239.61,562.050 z M 40.080,8.040L 40.080,507.96 l 159.53,53.22l0-499.92 L 40.080,8.040z M 599.92,68.040L 439.65,14.6L 439.65,514.5 l 160.27,53.46L 599.92,68.040 
	z" data-tags="brochure" />
<glyph unicode="&#xe009;" d="M 330,338L 90.040,338 c-5.53,0-10-4.48-10-10c0-5.53, 4.47-10, 10-10L 330,318 c 5.53,0, 10,4.47, 10,10C 340,333.52, 335.53,338, 330,338z
		M 330,178L 90.040,178 c-5.53,0-10-4.48-10-10c0-5.53, 4.47-10, 10-10L 330,158 c 5.53,0, 10,4.47, 10,10C 340,173.52, 335.53,178, 330,178z
		M 330,137.99L 90.040,137.99 c-5.53,0-10-4.48-10-10s 4.47-10, 10-10L 330,117.99 c 5.53,0, 10,4.48, 10,10S 335.53,137.99, 330,137.99zM 90.040,278L 270,278 c 5.53,0, 10,4.47, 10,10c0,5.52-4.47,10-10,10L 90.040,298 c-5.53,0-10-4.48-10-10
		C 80.040,282.47, 84.51,278, 90.040,278zM 90.040,237.99l 110,0 c 5.53,0, 10,4.48, 10,10s-4.47,10-10,10l-110,0 c-5.53,0-10-4.48-10-10S 84.51,237.99, 90.040,237.99zM 380,117.99l 180,0 L 560,338 L 380,338 L 380,117.99 z M 400,318l 140,0 l0-180.010 L 400,137.99 L 400,318 zM 580,538L 60,538 c-33.13,0-60-26.87-60-60l0-380 c0-33.14, 26.87-60, 60-60l 520,0 c 33.13,0, 60,26.86, 60,60L 640,478 C 640,511.13, 613.13,538, 580,538z
		 M 60,498l 520,0 c 11.030,0, 20-8.97, 20-20l0-60 L 40,418 l0,60 C 40,489.020, 48.97,498, 60,498z M 580,78L 60,78 c-11.030,0-20,8.96-20,20L 40,378 l 560,0 l0-280 C 600,86.96, 591.030,78, 580,78z
		M 80.040,462.99A15,15 180 1 1 110.040,462.99A15,15 180 1 1 80.040,462.99zM 130.040,462.99A15,15 180 1 1 160.040,462.99A15,15 180 1 1 130.040,462.99zM 180.040,462.99A15,15 180 1 1 210.040,462.99A15,15 180 1 1 180.040,462.99z" data-tags="broswer" />
<glyph unicode="&#xe00a;" d="M 621.71,420.010L 452.010,589.72c-23.43,23.44-61.42,23.44-84.84,0L 135.020,357.59
	c-23.43-23.44-23.43-61.43,0-84.86l 35.36-35.35L 21.21,88.21c-27.33-27.34-27.33-71.66,0-99c 27.34-27.34, 71.66-27.34, 99,0
	l 149.17,149.18l 35.35-35.37c 23.43-23.42, 61.43-23.42, 84.85,0l 232.13,232.13C 645.15,358.59, 645.15,396.57, 621.71,420.010z
	 M 423.73,561.44l 14.12-14.12L 332.98,442.45c-3.91-3.91-3.91-10.23,0-14.14s 10.23-3.91, 14.14,0L 451.99,533.18l 28.31-28.32
	l-76.57-76.56c-3.91-3.91-3.91-10.23,0-14.14s 10.23-3.91, 14.14,0l 76.57,76.56l 28.25-28.24L 389.56,329.33
	c-3.91-3.91-3.91-10.23,0-14.14s 10.24-3.91, 14.15,0l 133.13,133.14l 28.29-28.3L 460.27,315.19c-3.91-3.91-3.91-10.23,0-14.14
	s 10.23-3.91, 14.14,0l 104.85,104.84l 14.17-14.16c 7.79-7.79, 7.79-20.49,0-28.28L 453.23,223.23l-198,197.99L 395.44,561.44
	C 403.24,569.23, 415.93,569.23, 423.73,561.44z M 424.94,194.95l-28.28-28.28L 198.67,364.66l 28.28,28.28L 424.94,194.95z M 333.020,131.3
	l-35.36,35.37c-16.59,16.58-38.88,17.7-56.57,0L 91.93,17.49c-11.7-11.7-30.73-11.7-42.43,0s-11.7,30.74,0,42.42l 149.17,149.18
	c 18.030,18.030, 18.44,38.13,0,56.56l-35.35,35.35c-7.8,7.81-7.8,20.49,0,28.3l 21.21,21.21l 197.99-197.99l-21.21-21.21
	C 353.5,123.51, 340.82,123.51, 333.020,131.3z" data-tags="brush" />
<glyph unicode="&#xe00b;" d="M 516.74,608l-360,0 c-33.13,0-60-26.87-60-60l0-520 c0-33.13, 26.87-60, 60-60l 360,0 c 33.13,0, 60,26.88, 60,60L 576.74,548 
		C 576.74,581.14, 549.87,608, 516.74,608z M 536.74,28c0-11.020-8.97-20-20-20l-360,0 c-11.030,0-20,8.98-20,20L 136.74,548 c0,11.030, 8.97,20, 20,20l 360,0 
		c 11.030,0, 20-8.97, 20-20L 536.74,28 zM 476.7,508l-280,0 c-11.040,0-20-8.96-20-20l0-80 c0-11.040, 8.96-20, 20-20l 280,0 c 11.040,0, 20,8.96, 20,20l0,80 
		C 496.7,499.050, 487.74,508, 476.7,508z M 476.7,408l-280,0 l0,80 l 280,0 L 476.7,408 zM 296.71,318l-20,0 l0,20 c0,11.050-8.96,20-20,20s-20-8.95-20-20l0-20 L 216.7,318 c-11.040,0-20-8.95-20-20c0-11.040, 8.96-20, 20-20
		l 20.010,0 l0-20 c0-11.050, 8.96-20, 20-20s 20,8.95, 20,20l0,20 l 20,0 c 11.040,0, 20,8.96, 20,20C 316.71,309.050, 307.75,318, 296.71,318zM 309.13,190.56c-7.81,7.81-20.47,7.81-28.28,0l-24.14-24.14l-24.15,24.16
		c-7.81,7.81-20.47,7.81-28.28,0s-7.81-20.49,0-28.28l 24.15-24.16L 204.28,114c-7.81-7.81-7.81-20.47,0-28.28
		c 3.91-3.91, 9.020-5.86, 14.14-5.86s 10.23,1.95, 14.14,5.86l 24.15,24.14l 24.14-24.14c 3.91-3.91, 9.020-5.86, 14.14-5.86
		s 10.23,1.95, 14.14,5.86c 7.81,7.81, 7.81,20.47,0,28.28l-24.14,24.14l 24.14,24.14C 316.94,170.090, 316.94,182.75, 309.13,190.56zM 456.7,318l-80.010,0 c-11.040,0-20-8.95-20-20c0-11.040, 8.96-20, 20-20l 80.010,0 c 11.040,0, 20,8.96, 20,20
		C 476.7,309.050, 467.74,318, 456.7,318zM 470.45,191.95c-7.81,7.81-20.47,7.81-28.28,0l-79.79-79.79c-7.81-7.81-7.81-20.47,0-28.28
		c 3.91-3.91, 9.020-5.86, 14.14-5.86s 10.23,1.95, 14.14,5.86l 79.79,79.79C 478.26,171.48, 478.26,184.13, 470.45,191.95zM 356.74,178.020A19.98,19.98 180 1 1 396.7,178.01999999999998A19.98,19.98 180 1 1 356.74,178.01999999999998zM 436.73,98.020A19.98,19.98 180 1 1 476.69,98.01999999999998A19.98,19.98 180 1 1 436.73,98.01999999999998z" data-tags="calculator" />
<glyph unicode="&#xe00c;" d="M 524.22,210.71c 17.84,17.84, 100.21,138.2, 103.71,143.32c 14.65,21.43, 15.92,49.58, 3.31,73.46
		c-12.34,23.4-35.21,37.36-61.16,37.36L 150.12,464.85 l0,40 l0,20 l0,0 c0,1.39-0.14,2.73-0.41,4.040c-2.060,20.14-18.92,35.96-39.59,35.96l-70,0 
		c-22.060,0-40-17.94-40-40l0-20 c0-22.060, 17.94-40, 40-40l 70,0 l0-279.92 c0-44.11, 35.89-80, 80-80l 370,0 c 11.040,0, 20,8.96, 20,20s-8.96,20-20,20l-370,0 
		c-22.030,0-39.94,17.9-39.99,39.92l 310.19,0 C 495.63,184.85, 509.080,195.57, 524.22,210.71z M 570.080,424.85
		c 15.63,0, 23.24-11.21, 25.78-16.030c 4.44-8.41, 6.51-21.29-0.96-32.22c-40.18-58.77-89.44-128.1-98.96-137.62
		c-10.29-10.29-14.14-14.14-35.63-14.14l-310.2,0 l0,200 L 570.080,424.84 z M 40.12,504.85l0,20 l 70,0 l0-20 L 40.12,504.85 zM 230.070,104.93c-33.080,0-59.99-26.91-59.99-60s 26.91-60, 59.99-60c 33.090,0, 60.010,26.91, 60.010,60
		S 263.15,104.93, 230.070,104.93z M 230.070,24.93c-11.030,0-19.99,8.97-19.99,20c0,11.030, 8.96,20, 19.99,20c 11.040,0, 20.010-8.97, 20.010-20
		C 250.080,33.9, 241.1,24.93, 230.070,24.93zM 490.030,104.93c-33.080,0-59.99-26.91-59.99-60s 26.91-60, 59.99-60c 33.090,0, 60.010,26.91, 60.010,60
		S 523.12,104.93, 490.030,104.93z M 490.030,24.93c-11.030,0-19.99,8.97-19.99,20c0,11.030, 8.96,20, 19.99,20c 11.040,0, 20.010-8.97, 20.010-20
		C 510.040,33.9, 501.060,24.93, 490.030,24.93z" data-tags="cart" />
<glyph unicode="&#xe00d;" d="M 580,488L 60,488 c-33.13,0-60-26.88-60-60l0-280 c0-33.14, 26.87-60, 60-60l 520,0 c 33.13,0, 60,26.86, 60,60L 640,428 
		C 640,461.12, 613.13,488, 580,488z M 600,148c0-11.040-8.97-20-20-20L 60,128 c-11.030,0-20,8.96-20,20L 40,428 c0,11.020, 8.97,20, 20,20l 520,0 c 11.030,0, 20-8.98, 20-20L 600,148 
		zM 189.53,228.020c 0.040,0, 0.080-0.020, 0.12-0.020l 259.38,0 c 0.070,0, 0.13,0.040, 0.2,0.040
		C 449.48,228.040, 449.74,228, 450,228c 38.66,0, 70,31.33, 70,70c0,38.65-31.34,70-70,70c-0.26,0-0.52-0.040-0.78-0.040
		c-0.070,0-0.13,0.040-0.2,0.040L 189.65,368 c-0.040,0-0.080-0.020-0.12-0.020C 151.080,367.73, 120,336.5, 120,298
		C 120,259.48, 151.080,228.27, 189.53,228.020z M 480,298c0-16.54-13.46-30-30-30s-30,13.46-30,30s 13.46,30, 30,30S 480,314.54, 480,298z M 401.050,348
		C 388.080,335.29, 380,317.59, 380,298c0-19.61, 8.080-37.3, 21.050-50L 238.95,248 C 251.92,260.7, 260,278.39, 260,298c0,19.59-8.080,37.29-21.050,50
		L 401.050,348 z M 190,328c 16.54,0, 30-13.46, 30-30s-13.46-30-30-30s-30,13.46-30,30S 173.46,328, 190,328zM 569.96,408L 70,408 c-5.52,0-9.99-4.47-10-9.98l-0.35-240c0-2.66, 1.040-5.21, 2.92-7.090S 66.99,148, 69.65,148
		l 97.85,0 c 2.19,0, 4.32,0.72, 6.060,2.050L 223.34,188l 193,0 l 50.97-38.030C 469.030,148.7, 471.12,148, 473.28,148l 96.68,0 c 5.53,0, 10,4.47, 10,10
		L 579.96,398 C 579.96,403.53, 575.49,408, 569.96,408z M 559.96,168L 476.6,168 l-50.97,38.010C 423.91,207.3, 421.82,208, 419.66,208l-199.7,0 
		c-2.19,0-4.32-0.72-6.060-2.050L 164.12,168L 79.67,168 l 0.32,220l 479.97,0 L 559.96,168 z" data-tags="cassette" />
<glyph unicode="&#xe00e;" d="M 320,608C 143.26,608,0,464.73,0,288s 143.26-320, 320-320s 320,143.27, 320,320S 496.74,608, 320,608z M 320,8
		C 165.61,8, 40,133.61, 40,288S 165.61,568, 320,568s 280-125.61, 280-280S 474.39,8, 320,8zM 320.020,508c 5.53,0, 10,4.48, 10,10s-4.47,10-10,10c-132.34,0-240-107.67-240-240c0-5.52, 4.47-10, 10-10s 10,4.48, 10,10
		C 100.020,409.31, 198.71,508, 320.020,508zM 550.020,298c-5.53,0-10-4.48-10-10c0-121.31-98.69-220-220-220c-5.53,0-10-4.48-10-10s 4.47-10, 10-10
		c 132.32,0, 240,107.67, 240,240C 560.020,293.52, 555.55,298, 550.020,298zM 320.020,468c 5.53,0, 10,4.48, 10,10s-4.47,10-10,10c-110.29,0-200-89.72-200-200c0-5.52, 4.47-10, 10-10s 10,4.48, 10,10
		C 140.020,387.25, 220.76,468, 320.020,468zM 320.020,108c-5.53,0-10-4.48-10-10s 4.47-10, 10-10c 110.27,0, 200,89.72, 200,200c0,5.52-4.47,10-10,10s-10-4.48-10-10
		C 500.020,188.75, 419.26,108, 320.020,108zM 320.020,428c 5.53,0, 10,4.48, 10,10s-4.47,10-10,10c-88.22,0-160-71.78-160-160c0-5.52, 4.47-10, 10-10s 10,4.48, 10,10
		C 180.020,365.2, 242.83,428, 320.020,428zM 320.020,148c-5.53,0-10-4.48-10-10s 4.47-10, 10-10c 88.22,0, 160,71.78, 160,160c0,5.52-4.47,10-10,10s-10-4.48-10-10
		C 460.020,210.8, 397.21,148, 320.020,148zM 320.020,388c 5.53,0, 10,4.48, 10,10s-4.47,10-10,10c-66.17,0-120-53.84-120-120c0-5.52, 4.47-10, 10-10s 10,4.48, 10,10
		C 220.020,343.15, 264.88,388, 320.020,388zM 320.020,188c-5.53,0-10-4.48-10-10s 4.47-10, 10-10c 66.17,0, 120,53.84, 120,120c0,5.52-4.47,10-10,10s-10-4.48-10-10
		C 420.020,232.85, 375.16,188, 320.020,188zM 400,288c0,44.18-35.8,80-80,80c-44.18,0-80-35.82-80-80c0-44.19, 35.82-80, 80-80C 364.2,208, 400,243.81, 400,288z M 280,288
		c0,22.060, 17.95,40, 40,40c 22.070,0, 40-17.94, 40-40s-17.93-40-40-40C 297.95,248, 280,265.94, 280,288zM 310.020,288A10,10 180 1 1 330.020,288A10,10 180 1 1 310.020,288z" data-tags="cd" />
<glyph unicode="&#xe00f;" d="M 229.46,396.13c0-5.53, 4.47-10, 10-10l 180,0 c 5.53,0, 10,4.47, 10,10c0,5.51-4.47,10-10,10l-180,0 
		C 233.94,406.13, 229.46,401.64, 229.46,396.13zM 419.46,346.13l-180,0 c-5.53,0-10-4.49-10-10c0-5.53, 4.47-10, 10-10l 180,0 c 5.53,0, 10,4.47, 10,10
		C 429.46,341.64, 424.99,346.13, 419.46,346.13zM 419.46,286.13l-180,0 c-5.53,0-10-4.49-10-10c0-5.53, 4.47-10, 10-10l 180,0 c 5.53,0, 10,4.47, 10,10
		C 429.46,281.64, 424.99,286.13, 419.46,286.13zM 329.46,226.13l-90,0 c-5.53,0-10-4.49-10-10c0-5.53, 4.47-10, 10-10l 90,0 c 5.53,0, 10,4.47, 10,10
		C 339.46,221.64, 334.99,226.13, 329.46,226.13zM 309.15,546.010A20,20 180 1 1 349.15,546.01A20,20 180 1 1 309.15,546.01zM 529.5,566.19L 393.4,566.19 l-4.22,6.41l-0.090,0 c-12.31,20.020-34.37,33.42-59.59,33.42s-47.28-13.4-59.59-33.42
		l-0.1,0 L 265.6,566.19L 129.5,566.19 c-33.13,0-60-26.86-60-60l0-480 c0-33.13, 26.87-60, 60-60l 400,0 c 33.13,0, 60,26.88, 60,60l0,480 
		C 589.5,539.33, 562.64,566.19, 529.5,566.19z M 281.090,552.59l 5.85,9.51c 9.21,14.96, 25.12,23.91, 42.56,23.91s 33.35-8.95, 42.56-23.91
		L 378,552.59l 0.41,0 l 43.91-66.58l-82.4,0 l-22.030,0 l-81.25,0 l 43.95,66.58L 281.090,552.59 z M 459.46,466.010l-13.18,19.98l 23.18,0 c 11.030,0, 20-8.96, 20-20l0-380 
		c0-11.020-8.97-20-20-20L 189.39,65.99 c-11.030,0-20,8.98-20,20l0,380 c0,11.040, 8.97,20, 20,20l 23.27,0 l-13.2-19.98l 118.42,0 l 22.030,0 L 459.46,466.010 z M 549.5,26.19
		c0-11.020-8.97-20-20-20l-400,0 c-11.030,0-20,8.98-20,20l0,480 c0,11.040, 8.97,20, 20,20l 109.69,0 l-13.33-20.2l-36.46,0 c-22.090,0-40-17.89-40-40l0-380 
		c0-22.090, 17.91-40, 40-40l 280.070,0 c 22.090,0, 40,17.91, 40,40l0,380 c0,22.11-17.91,40-40,40L 433.1,505.99 l-13.32,20.2L 529.5,526.19 c 11.030,0, 20-8.96, 20-20L 549.5,26.19 z" data-tags="clipboard" />
<glyph unicode="&#xe010;" d="M 547.26,364.46c-4.14,90-78.8,161.95-169.98,161.95c-59.36,0-112.92-29.96-143.89-79.36
		c-9.25,2.93-18.91,4.43-28.63,4.43c-52.43,0-95.090-42.58-95.090-94.92c0-0.98, 0.020-1.95, 0.050-2.93
		C 46.74,338.9,0,281.95,0,215.71c0-78.18, 63.71-141.8, 142.030-141.8l 346.6,0 c 0.39,0, 0.78,0.020, 1.17,0.040
		C 572.72,74.6, 640,142.16, 640,225.11C 640,286.87, 603.3,341.12, 547.26,364.46z M 488.63,113.96c-0.36,0-0.73-0.020-1.090-0.040L 142.030,113.92 
		C 85.77,113.92, 40,159.58, 40,215.71c0,52.68, 41.25,97.19, 93.92,101.33c 5.94,0.47, 11.35,3.54, 14.78,8.4
		c 3.44,4.86, 4.52,11.020, 2.97,16.76c-1.32,4.88-1.99,9.73-1.99,14.38c0,30.29, 24.72,54.92, 55.090,54.92
		c 9.7,0, 18.91-2.46, 27.39-7.32c 4.81-2.75, 10.53-3.4, 15.86-1.76c 5.29,1.64, 9.68,5.41, 12.090,10.41
		c 21.93,45.39, 66.84,73.59, 117.18,73.59c 71.77,0, 130.16-58.24, 130.16-129.84c0-0.82-0.070-1.62-0.13-2.42l-0.17-2.83
		c-0.39-9.1, 5.42-17.32, 14.14-19.98C 568.36,316.96, 600,274.27, 600,225.11C 600,163.82, 550.040,113.96, 488.63,113.96zM 378.33,456.42c-9.54,0-18.97-1.31-28.030-3.93c-5.3-1.54-8.37-7.070-6.84-12.38
		c 1.53-5.29, 7.020-8.36, 12.38-6.84c 7.25,2.090, 14.81,3.14, 22.48,3.14c 32.79,0, 62.83-20.49, 74.75-51
		c 1.54-3.95, 5.32-6.37, 9.32-6.37c 1.21,0, 2.44,0.23, 3.64,0.7c 5.14,2.010, 7.69,7.79, 5.67,12.95
		C 456.83,430.81, 419.3,456.42, 378.33,456.42z" data-tags="cloud" />
<glyph unicode="&#xe011;" d="M 125.45,394.99l0-23.73 c-7.37,2.070-15.050,3.32-22.99,3.32c-11.41,0-22.57-2.25-33.17-6.64
		c-21.38-8.87-38.030-25.53-46.88-46.91s-8.83-44.94, 0.040-66.31l 23.5-56.66c 13.47-32.46, 44.89-53.46, 80.060-53.46
		c 1.44,0, 2.86,0.2, 4.29,0.27c 16.35-62.95, 73.49-109.63, 141.47-109.63l 157.36,0 c 80.68,0, 146.32,65.64, 146.32,146.33L 575.45,394.99 L 125.45,394.99 
		z M 125.45,184.64c-18.71,0.23-35.37,11.45-42.55,28.75l-23.51,56.66c-4.78,11.5-4.78,24.18-0.020,35.68
		c 4.77,11.5, 13.73,20.49, 25.24,25.25c 5.72,2.38, 11.73,3.59, 17.84,3.59c 8.32,0, 16.11-2.42, 22.99-6.39L 125.44,184.64 z M 535.45,181.57
		c0-58.63-47.7-106.33-106.32-106.33L 271.77,75.24 c-58.62,0-106.32,47.7-106.32,106.33L 165.45,354.99 l 370,0 L 535.45,181.57 zM 555.45,5.070l-410,0 c-11.040,0-20-8.95-20-20c0-11.040, 8.96-20, 20-20l 410,0 c 11.040,0, 20,8.96, 20,20
		C 575.45-3.88, 566.49,5.070, 555.45,5.070zM 288.65,444.66c-5.34-9.68-1.83-21.84, 7.85-27.18c 3.060-1.68, 6.38-2.49, 9.64-2.49
		c 7.050,0, 13.89,3.74, 17.53,10.34c 21.37,38.73, 9.56,69.46, 0.080,94.15c-9,23.44-13.15,36.51-1.45,54.69
		c 5.98,9.29, 3.3,21.67-5.99,27.65c-9.28,5.97-21.65,3.3-27.65-5.99c-23.24-36.090-11.61-66.37-2.26-90.7
		C 294.9,483.040, 301.030,467.090, 288.65,444.66zM 378.26,445.29c-5.68-9.47-2.62-21.76, 6.85-27.44c 3.22-1.93, 6.78-2.86, 10.28-2.86
		c 6.79,0, 13.41,3.47, 17.17,9.71c 20.75,34.55, 8.6,58.58, 0.57,74.48c-7.010,13.87-10.21,20.21-1.13,35.71
		c 5.59,9.53, 2.38,21.78-7.15,27.36c-9.51,5.58-21.79,2.39-27.36-7.15c-20.11-34.32-8.040-58.18-0.050-73.98
		C 384.44,467.24, 387.65,460.92, 378.26,445.29zM 475.77,125.97c 1.88,0, 3.79,0.53, 5.48,1.64c 21.63,14.18, 34.54,38.050, 34.54,63.85L 515.79,295.010 
		c0,5.51-4.47,10-10,10s-10-4.49-10-10l0-103.55 c0-19.040-9.54-36.66-25.52-47.13c-4.62-3.030-5.9-9.24-2.87-13.85
		C 469.32,127.55, 472.51,125.97, 475.77,125.97z" data-tags="coffee" />
<glyph unicode="&#xe012;" d="M 319.49,608.1c-154.65,0-280-58.2-280-130l0-379.43 l 0.040,0 c0-0.16-0.040-0.33-0.040-0.51c0-71.8, 125.35-130, 280-130
	c 154.63,0, 280,58.2, 280,130c0,0.18-0.040,0.35-0.040,0.51l 0.040,0 L 599.49,478.1 C 599.49,549.9, 474.12,608.1, 319.49,608.1z M 319.49,568.1
	c 146.5,0, 240-53.3, 240-90l-0.4,0 l0-2.62 c-4.19-36.56-96.47-87.38-239.6-87.38c-146.5,0-240,53.3-240,90S 172.99,568.1, 319.49,568.1z
	 M 559.49,198.14c-37.72-37.85-125.98-69.96-240-69.96c-114.41,0-202.9,32.32-240.4,70.35l0,92.91 c 48.9-37.93, 138.24-63.34, 240.4-63.34
	c 101.87,0, 191.010,25.25, 240,63.030L 559.49,198.14 z M 559.49,318.060c-37.72-37.87-125.98-69.96-240-69.96c-114.41,0-202.9,32.32-240.4,70.35
	l0,92.99 c 48.9-37.93, 138.24-63.34, 240.4-63.34c 101.87,0, 191.010,25.25, 240,63.030L 559.49,318.060 z M 559.49,98.16c0-36.68-93.5-90-240-90
	c-146.41,0-239.86,53.24-239.99,89.94L 79.090,98.1 l0,0.57 l0,66.15 l0,6.7 c 48.9-37.93, 138.24-63.34, 240.4-63.34
	c 101.87,0, 191.010,25.25, 240,63.030l0-6.070 c-0.14,0.12-0.25,0.23-0.4,0.33l0-26.8 l0-37.89 l0-2.11 l 0.32,0 
	C 559.43,98.51, 559.49,98.34, 559.49,98.16z" data-tags="coins" />
<glyph unicode="&#xe013;" d="M 391.83,559.58L 391.83,568 c0,22.090-17.91,40-40,40l-60,0 c-22.090,0-40-17.91-40-40l0-8.16 C 119.65,528.49, 21.29,409.76, 21.29,268
		c0-165.68, 134.31-300, 300-300s 300,134.32, 300,300C 621.29,409.39, 523.47,527.84, 391.83,559.58z M 271.83,568c0,11.040, 8.97,20, 20,20l 60,0 
		c 11.030,0, 20-8.96, 20-20l0-4.32 C 355.4,566.48, 338.53,568, 321.29,568c-16.86,0-33.36-1.45-49.46-4.12L 271.83,568 z M 321.29,8
		c-143.36,0-260,116.64-260,260s 116.64,260, 260,260s 260-116.64, 260-260S 464.65,8, 321.29,8zM 235.35,460.010c 5.050,2.25, 7.31,8.16, 5.080,13.2c-2.25,5.040-8.13,7.34-13.2,5.080
		c-62.72-27.87-109.39-81.66-128.040-147.58c-1.5-5.31, 1.58-10.84, 6.89-12.34C 106.99,318.12, 107.91,318, 108.81,318
		c 4.36,0, 8.37,2.87, 9.61,7.29C 135.44,385.46, 178.060,434.56, 235.35,460.010zM 465.99,425.75c-17.77-6.56-174.6-64.96-205.48-94.26c-31.070-29.49-90.32-190.020-96.98-208.22
		c-1.36-3.71-0.4-7.87, 2.44-10.63c 1.9-1.84, 4.4-2.81, 6.95-2.81c 1.26,0, 2.54,0.23, 3.75,0.74
		c 18.31,7.4, 179.63,73.050, 207.18,95.88c 28.44,23.57, 88.28,187.87, 95.010,206.52c 1.32,3.67, 0.4,7.75-2.36,10.51
		C 473.75,426.22, 469.65,427.12, 465.99,425.75z M 371.090,221.87c-18.71-15.53-122.66-60.1-180.8-84.12
		c 21.86,57.5, 63.46,159.77, 83.99,179.24c 20.75,19.69, 121.98,60.84, 178.26,82.34C 426.93,330.64, 387.63,235.56, 371.090,221.87zM 291.29,268A30,30 180 1 1 351.29,268A30,30 180 1 1 291.29,268z" data-tags="compass" />
<glyph unicode="&#xe014;" d="M 403.79,284l 10.56,10.55c 9.22-2.99, 18.82-4.49, 28.42-4.49c 23.36,0, 46.7,8.89, 64.53,26.72
	l 133.34,133.34L 485.090,605.68L 351.74,472.34c-25.15-25.16-32.51-61.29-22.24-92.93l-10.58-10.59L 75.6,612.18
	C 27.12,563.7, 8.46,453.040, 69.38,392.12l 136.44-136.41L 16.93,66.83c-23.44-23.42-23.43-61.43,0-84.84
	c 11.71-11.72, 27.070-17.58, 42.42-17.58s 30.71,5.86, 42.43,17.58l 190.34,190.35c 3.51-1.48, 7.23-2.27, 10.98-2.27
	c 7.2,0, 14.39,2.73, 19.89,8.24l 8.39,8.38L 536.67-18.6c 11.71-11.72, 27.070-17.58, 42.42-17.58c 15.36,0, 30.71,5.86, 42.43,17.58
	c 23.43,23.44, 23.44,61.43,0,84.86L 403.79,284z M 357.78,351.12l 17.33,17.32l-7.57,23.3c-6.030,18.55-1.24,38.59, 12.47,52.3
	L 485.090,549.11l 98.98-99L 479.010,345.050c-9.68-9.67-22.55-15-36.25-15c-5.47,0-10.88,0.86-16.060,2.54l-23.31,7.58
	l-17.32-17.34l-10.56-10.55l-22.69,22.68c-0.040,0.040-0.090,0.080-0.13,0.12l-5.49,5.47L 357.78,351.12z M 73.51,10.27
	c-5.1-5.1-11.050-5.86-14.15-5.86s-9.040,0.76-14.13,5.86c-5.11,5.1-5.87,11.050-5.87,14.14
	c0,3.11, 0.76,9.040, 5.86,14.14l 188.88,188.89l 28.29-28.28L 73.51,10.27z M 593.23,9.68c-5.090-5.1-11.040-5.86-14.14-5.86
	s-9.040,0.76-14.14,5.86L 359.67,214.97l-28.26,28.26l-28.29-28.24l0-0.020 L 97.66,420.4C 64.38,453.68, 65.53,509.17, 81.96,549.25
	l 242.45-242.46l 1.82-1.82l 0.040-0.040l 266.97-266.95c 5.1-5.12, 5.86-11.050, 5.86-14.16
	C 599.1,20.73, 598.34,14.78, 593.23,9.68z" data-tags="cutlery" />
<glyph unicode="&#xe015;" d="M 160.020,247.94L 160.020,548 c0,33.13-26.87,60-60,60s-60-26.87-60-60l0-300.060 c-24.25-18.25-40-47.18-40-79.86
		s 15.75-61.62, 40-79.86L 40.020,28 c0-33.13, 26.87-60, 60-60s 60,26.87, 60,60l0,60.21 c 24.25,18.24, 40,47.18, 40,79.86S 184.27,229.69, 160.020,247.94z
		 M 80.020,548c0,11.030, 8.97,20, 20,20s 20-8.97, 20-20l0-281.93 c-6.46,1.32-13.14,2.010-20,2.010s-13.54-0.69-20-2.010L 80.020,548 z M 120.020,28
		c0-11.030-8.97-20-20-20s-20,8.97-20,20l0,42.090 c 6.46-1.32, 13.14-2.010, 20-2.010s 13.54,0.69, 20,2.010L 120.020,28 z M 100.020,108.080
		c-33.090,0-60,26.91-60,60s 26.91,60, 60,60s 60-26.91, 60-60S 133.11,108.080, 100.020,108.080zM 639.98,208.080c0,32.69-15.75,61.61-40,79.86L 599.98,548 c0,33.13-26.87,60-60,60s-60-26.87-60-60l0-260.060 
		c-24.25-18.25-40-47.18-40-79.86s 15.75-61.62, 40-79.86L 479.98,28 c0-33.13, 26.87-60, 60-60s 60,26.87, 60,60L 599.98,128.21 
		C 624.23,146.46, 639.98,175.39, 639.98,208.080z M 519.98,548c0,11.030, 8.97,20, 20,20s 20-8.97, 20-20l0-241.93 c-6.46,1.32-13.14,2.010-20,2.010
		s-13.54-0.69-20-2.010L 519.98,548 z M 559.98,28c0-11.030-8.97-20-20-20s-20,8.97-20,20l0,82.090 c 6.46-1.32, 13.14-2.010, 20-2.010
		s 13.54,0.69, 20,2.010L 559.98,28 z M 539.98,148.080c-33.090,0-60,26.91-60,60s 26.91,60, 60,60s 60-26.91, 60-60S 573.070,148.080, 539.98,148.080zM 379.98,487.85L 379.98,548 c0,33.13-26.87,60-60,60s-60-26.87-60-60l0-60.15 c-24.25-18.24-40-47.17-40-79.85
		c0-32.69, 15.75-61.62, 40-79.87L 259.98,28 c0-33.13, 26.87-60, 60-60s 60,26.87, 60,60L 379.98,328.13 c 24.25,18.25, 40,47.18, 40,79.87
		C 419.98,440.68, 404.23,469.61, 379.98,487.85z M 299.98,548c0,11.030, 8.97,20, 20,20s 20-8.97, 20-20l0-42.010 c-6.46,1.31-13.14,2.010-20,2.010
		s-13.54-0.7-20-2.010L 299.98,548 z M 339.98,28c0-11.030-8.97-20-20-20s-20,8.97-20,20L 299.98,310 c 6.46-1.31, 13.14-2, 20-2s 13.54,0.69, 20,2L 339.98,28 z
		 M 319.98,348c-33.090,0-60,26.91-60,60c0,33.080, 26.91,60, 60,60s 60-26.92, 60-60C 379.98,374.91, 353.070,348, 319.98,348z" data-tags="dashboard" />
<glyph unicode="&#xe016;" d="M 320,608C 143.28,608,0,464.74,0,288c0-176.72, 143.28-320, 320-320c 176.73,0, 320,143.28, 320,320C 640,464.74, 496.73,608, 320,608z
		 M 320,8C 165.61,8, 40,133.61, 40,288S 165.61,568, 320,568s 280-125.61, 280-280S 474.39,8, 320,8zM 321.85,188l 28.21,0 c 10.49,0, 19.2,8.11, 19.95,18.57l 20,280c 0.39,5.53-1.53,10.98-5.31,15.040
		C 380.91,505.68, 375.62,508, 370.060,508l-100,0 c-5.56,0-10.85-2.32-14.64-6.39c-3.78-4.060-5.7-9.51-5.31-15.040l 20-280
		C 270.86,196.11, 279.57,188, 290.060,188l 28.9,0 c-37.92-0.78-68.55-31.82-68.55-69.92c0-38.61, 31.41-70.020, 70-70.020s 70,31.41, 70,70.020
		C 390.4,156.18, 359.77,187.22, 321.85,188z M 291.54,468l 57.030,0 l-17.14-240l-22.75,0 L 291.54,468z M 320.4,88.060c-16.54,0-30,13.48-30,30.020
		s 13.46,29.98, 30,29.98s 30-13.44, 30-29.98S 336.94,88.060, 320.4,88.060z" data-tags="exclamation" />
<glyph unicode="&#xe017;" d="M 596.77,409.98L 441.2,565.54l-42.42,42.42l-84.32-84.3l 63.73,63.72l-63.99-64
	c-4.97-4.97-10.69-8.65-16.7-11.51l-11.64,11.64c-23.43,23.43-61.42,23.43-84.85,0l-87.28-87.28L 97.6,421.090l-12.25,12.25
	C 75.6,443.1, 62.79,447.99, 50,447.99s-25.6-4.88-35.35-14.65c-19.53-19.52-19.53-51.18,0-70.71l 269.89-269.89l0,0 l 110.050-110.050
	c 9.76-9.76, 22.56-14.64, 35.35-14.64s 25.6,4.88, 35.35,14.64c 19.53,19.53, 19.53,51.19,0,70.71L 337.12,181.57l 14.25,14.24
	l 67.95,65.17l 22.11,22.1c 4.97,4.98, 10.68,8.66, 16.69,11.52l 11.64-11.64c 23.44-23.43, 61.43-23.43, 84.85,0l 0.27,0.27l 84.31,84.31
	L 596.77,409.98z M 439.94,18.040c0-1.88-0.51-4.65-2.94-7.080c-2.41-2.41-5.17-2.92-7.060-2.92
	c-1.88,0-4.65,0.51-7.070,2.92L 312.81,121.020l 0.010,0L 42.93,390.92C 40.51,393.34, 40,396.090, 40,397.99
	c0,1.88, 0.51,4.64, 2.94,7.080C 45.35,407.48, 48.11,407.99, 50,407.99c 1.88,0, 4.65-0.51, 7.070-2.93l 239.89-239.89l0,0 
	L 437.010,25.1C 439.43,22.69, 439.94,19.92, 439.94,18.040z M 413.14,311.37l-22.12-22.11l-67.95-65.17l-14.14-14.14l-14.14,14.14
	L 139.23,379.66l-14.14,14.14l 14.14,14.15l 90.070,87.27c 7.68,7.69, 20.080,7.77, 27.91,0.31l 56.99-56.99l 15.14-15.14l 99.33-99.32
	C 423.16,320.44, 417.97,316.2, 413.14,311.37z M 526.6,311.53l-0.27-0.27c-7.68-7.68-20.080-7.76-27.91-0.3l-56.99,56.99
	l-15.15,15.14l-99.32,99.32c 5.48,3.64, 10.68,7.87, 15.52,12.7l-15.52-12.7l 15.79,12.96l 56.030,56.030l 14.14-14.14L 568.49,381.7
	l 14.14-14.15L 526.6,311.53z" data-tags="flag" />
<glyph unicode="&#xe018;" d="M 545,105.11L 545,257.96 c0,44.11-35.89,80-80,80l-120,0 L 345,470.9 c 28.9,8.61, 50,35.36, 50,67.060c0,38.67-31.36,70-70,70
	c-38.66,0-70-31.34-70-70c0-31.7, 21.090-58.46, 50-67.070l0-132.93 l-120,0 c-44.11,0-80-35.89-80-80L 105,105.1 c-28.89-8.62-49.96-35.36-49.96-67.060
	c0-38.66, 31.34-70, 70-70c 38.64,0, 70,31.34, 70,70c0,31.72-21.12,58.48-50.040,67.080L 145,257.96 c0,22.050, 17.94,40, 40,40l 120,0 L 305,105.1 
	c-28.91-8.61-50-35.36-50-67.070c0-38.66, 31.34-70, 70-70c 38.64,0, 70,31.34, 70,70c0,31.71-21.1,58.46-50,67.070L 345,297.96 l 120,0 c 22.060,0, 40-17.95, 40-40
	l0-152.85 c-28.91-8.61-50-35.36-50-67.070c0-38.66, 31.34-70, 70-70c 38.64,0, 70,31.34, 70,70C 595,69.75, 573.9,96.5, 545,105.11z M 295,537.96
	c0,16.54, 13.46,30, 30,30s 30-13.46, 30-30s-13.46-30-30-30S 295,521.42, 295,537.96z M 155.040,38.040c0-16.54-13.46-30-30-30s-30,13.46-30,30
	s 13.46,30, 30,30S 155.040,54.59, 155.040,38.040z M 355,38.030c0-16.54-13.46-30-30-30s-30,13.46-30,30c0,16.55, 13.46,30, 30,30
	S 355,54.58, 355,38.030z M 525,8.040c-16.54,0-30,13.46-30,30s 13.46,30, 30,30s 30-13.46, 30-30S 541.54,8.040, 525,8.040z" data-tags="flow-chart" />
<glyph unicode="&#xe019;" d="M 480,608L 160,608 c-33.13,0-60-26.87-60-60l0-520 c0-33.13, 26.87-60, 60-60l 320,0 c 33.13,0, 60,26.87, 60,60L 540,548 C 540,581.13, 513.13,608, 480,608z
		 M 500,28c0-11.030-8.97-20-20-20L 160,8 c-11.030,0-20,8.97-20,20L 140,548 c0,11.030, 8.97,20, 20,20l 320,0 c 11.030,0, 20-8.97, 20-20L 500,28 zM 190.040,248l 260,0 c 5.53,0, 10,4.48, 10,10L 460.040,518 c0,5.52-4.47,10-10,10l-260,0 c-5.53,0-10-4.48-10-10l0-260 
		C 180.040,252.47, 184.51,248, 190.040,248z M 200.040,508l 240,0 l0-240 l-240,0 L 200.040,508 zM 240,128l 20,0 c 11.040,0, 20,8.96, 20,20s-8.96,20-20,20l-20,0 l0,20 c0,11.040-8.96,20-20,20s-20-8.96-20-20l0-20 l-20,0 
		c-11.040,0-20-8.96-20-20s 8.96-20, 20-20l 20,0 l0-20 c0-11.040, 8.96-20, 20-20s 20,8.96, 20,20L 240,128 zM 440,228c-22.090,0-40-17.91-40-40s 17.91-40, 40-40s 40,17.91, 40,40S 462.090,228, 440,228z M 440,168c-11.030,0-20,8.97-20,20
		s 8.97,20, 20,20s 20-8.97, 20-20S 451.030,168, 440,168zM 369.84,168c-22.090,0-40-17.91-40-40s 17.91-40, 40-40s 40,17.91, 40,40S 391.93,168, 369.84,168z M 369.84,108
		c-11.030,0-20,8.97-20,20s 8.97,20, 20,20s 20-8.97, 20-20S 380.87,108, 369.84,108zM 280,68.080l-20,0 c-11.040,0-20-8.96-20-20s 8.96-20, 20-20l 20,0 c 11.040,0, 20,8.96, 20,20S 291.040,68.080, 280,68.080zM 360,68.080l-20,0 c-11.040,0-20-8.96-20-20s 8.96-20, 20-20l 20,0 c 11.040,0, 20,8.96, 20,20S 371.040,68.080, 360,68.080z" data-tags="gameboy" />
<glyph unicode="&#xe01a;" d="M 320,608C 143.27,608,0,464.74,0,288c0-176.72, 143.27-320, 320-320s 320,143.28, 320,320C 640,464.74, 496.73,608, 320,608z
	 M 599.2,308.040L 483.35,308.040 c-1.75,48.55-9.78,93.96-22.66,133.48c 22.13,10.88, 42.81,24.2, 61.7,39.67
	C 566.090,435.42, 594.44,374.97, 599.2,308.040z M 340,565.11c 38.69-11.020, 72.97-53.38, 95.58-112.99c-29.75-12.48-61.9-20.29-95.58-22.52
	L 340,565.11 z M 390.21,559.090c 44.47-11.54, 84.69-33.75, 117.73-63.73c-16.65-13.42-34.74-25.14-54.020-34.8
	C 437.73,502.65, 415.82,536.79, 390.21,559.090z M 300,565.11L 300,429.6 c-33.67,2.23-65.83,10-95.57,22.48C 227.030,511.69, 261.3,554.070, 300,565.11z
	 M 186.1,460.58c-19.29,9.69-37.43,21.33-54.090,34.77c 33.070,30, 73.32,52.23, 117.83,63.75C 224.23,536.81, 202.29,502.67, 186.1,460.58z
	 M 300,409.54l0-101.5 L 176.69,308.040 c 1.73,45.23, 9.24,87.87, 21.1,125.040C 229.59,419.89, 263.99,411.77, 300,409.54z M 300,268.040l0-108.73 
	c-35.21-2.17-68.87-10.040-100.080-22.7c-13.090,38.65-21.41,83.59-23.23,131.43L 300,268.040 z M 300,139.25l0-128.26 
	c-37.32,10.64-70.53,50.45-93.13,106.78C 235.94,129.64, 267.26,137.080, 300,139.25z M 249.98,16.87
	c-42.66,11.040-81.37,31.93-113.63,60.060c 16.14,12.54, 33.57,23.5, 52.090,32.58C 204.4,70.070, 225.53,38.1, 249.98,16.87z M 340,10.97
	L 340,139.25 c 32.75-2.17, 64.080-9.57, 93.14-21.46C 410.55,61.44, 377.33,21.61, 340,10.97z M 451.56,109.46
	c 18.52-9.1, 35.99-19.98, 52.12-32.52c-32.27-28.13-70.96-49.020-113.61-60.060C 414.49,38.1, 435.61,70.070, 451.56,109.46z M 340,159.31
	L 340,268.040 l 123.32,0 c-1.84-47.83-10.15-92.77-23.22-131.41C 408.89,149.31, 375.21,157.12, 340,159.31z M 340,308.040l0,101.5 
	c 36.020,2.25, 70.4,10.41, 102.21,23.59c 11.87-37.19, 19.38-79.84, 21.11-125.1L 340,308.030 z M 117.58,481.16c 18.91-15.47, 39.61-28.79, 61.74-39.67
	c-12.87-39.51-20.91-84.9-22.66-133.46L 40.8,308.030 C 45.56,374.95, 73.91,435.4, 117.58,481.16z M 40.79,268.040l 115.87,0 
	c 1.84-51.090, 10.66-98.69, 24.75-139.63c-21.44-10.33-41.52-22.97-59.98-37.6C 75.53,137.040, 45.67,199.13, 40.79,268.040z
	 M 518.55,90.79c-18.44,14.63-38.54,27.25-59.95,37.58c 14.080,40.96, 22.9,88.55, 24.75,139.67l 115.86,0 
	C 594.33,199.13, 564.46,137.020, 518.55,90.79z" data-tags="globe" />
<glyph unicode="&#xe01b;" d="M 520.020,377.98l0,6.050 c0,90.59-73.69,164.28-164.28,164.28L 284.3,548.31 c-90.59,0-164.28-73.69-164.28-164.28l0-6.050 
	c-66.74-3.48-120-58.69-120-126.27l0-76.7 c0-69.8, 56.8-126.62, 126.61-126.62l 13.39,0 c 11.040,0, 20,8.96, 20,20L 160.020,338.31 
	c 24.53,0, 38.46,12.87, 39.84,36.090l 0.12,0 l0,1.62 c 0.020,0.72, 0.16,1.39, 0.16,2.13l-0.16,0 l0,5.88 c0,46.46, 37.8,84.28, 84.28,84.28
	l 71.45,0 c 46.47,0, 84.28-37.81, 84.28-84.28l0-6.35 l 0.040,0 c 0.18-25.33, 14.34-39.32, 39.96-39.36l0-269.94 c0-11.040, 8.96-20, 20-20l 13.39,0 
	c 69.81,0, 126.61,56.82, 126.61,126.62l0,76.7 C 639.98,319.27, 586.74,374.48, 520.020,377.98z M 120.020,88.64c-44.68,3.4-80,40.84-80,86.37
	l0,76.7 c0,45.53, 35.32,82.97, 80,86.37L 120.020,88.64 z M 459.98,378.16l0,5.88 c0,57.5-46.78,104.28-104.28,104.28l-71.45,0 
	c-57.5,0-104.28-46.78-104.28-104.28l0-8.85 c-0.77-12.17-6.39-16.88-19.96-16.88l0,0l0,25.72 c0,68.65, 55.64,124.28, 124.28,124.28
	l 71.45,0 c 68.63,0, 124.28-55.63, 124.28-124.28l0-25.33 c0-0.14-0.040-0.25-0.040-0.39C 465.41,358.35, 459.98,363.74, 459.98,378.16z
	 M 599.98,175.010c0-45.53-35.32-82.97-80-86.37L 519.98,338.080 c 44.68-3.4, 80-40.84, 80-86.37L 599.98,175.010 z" data-tags="headphones" />
<glyph unicode="&#xe01c;" d="M 639.69,436.79c0,2.11, 0.12,3.5, 0.31,4.47L 640,448 c0,88.36-71.63,160-160,160l-14.36,0 
	c-0.64-0.040-1.22-0.080-2.030-0.080c-28.6,0-51.040-14.9-67.72-29.65c-7.29,1.91-14.72,3.48-22.21,4.82
	C 366.41,586.24, 358.39,588, 349.96,588l-60,0 c-8.43,0-16.45-1.76-23.72-4.9c-5.1-0.92-10.16-1.97-15.17-3.14
	c-16.48,14.18-38.28,27.97-65.79,27.97c-0.81,0-1.4,0.040-2.030,0.080L 160,608.010 C 71.63,608,0,536.36,0,448l0-18.98 
	c 2.47-25.86, 16.86-46.19, 30.69-61.52c-2.32-8.46-4.27-17.090-5.85-25.84C 21.74,334.41, 20,326.42, 20,318.040l0-28.5 
	C 20,289.020, 19.96,288.51, 19.96,288C 19.96,287.47, 20,286.96, 20,286.46l0-28.42 c0-8.38, 1.72-16.33, 4.81-23.57
	c 0.66-3.67, 1.38-7.34, 2.18-10.98C 14.39,208.7, 2.25,189.76,0,166.22L0,128 c0-88.38, 71.63-160, 160-160l 23.11,0 
	c 0.67,0.040, 1.31,0.080, 2.18,0.080c 27.52,0, 49.32,13.79, 65.79,27.95c 5.1-1.19, 10.23-2.25, 15.43-3.18
	c 7.21-3.070, 15.13-4.77, 23.46-4.77l 26.91,0 C 317.91-11.94, 318.93-12, 319.96-12s 2.050,0.060, 3.090,0.080l 26.91,0 
	c 8.33,0, 16.25,1.7, 23.46,4.77c 7.59,1.37, 15.090,2.95, 22.46,4.86c 16.69-14.75, 39.12-29.63, 67.73-29.63
	c 0.87,0, 1.5-0.040, 2.18-0.080L 480-32 c 88.37,0, 160,71.62, 160,160l0,25.98 c-0.2,0.98-0.31,2.36-0.31,4.47
	c0,26.82-13.1,48.18-26.88,64.49c 0.84,3.83, 1.59,7.66, 2.29,11.52c 3.1,7.25, 4.81,15.2, 4.81,23.57l0,28.42 
	c0,0.51, 0.040,1.020, 0.040,1.54c0,0.51-0.040,1.020-0.040,1.54l0,28.5 c0,8.38-1.73,16.37-4.84,23.61
	c-1.61,8.93-3.6,17.71-5.99,26.35C 624.14,384.8, 639.69,407.57, 639.69,436.79z M 463.61,587.92c 0.9,0, 1.61,0.040, 2.52,0.080L 480,588 
	c 77.2,0, 140-62.81, 140-140l0-5.27 c-0.21-1.76-0.31-3.69-0.31-5.94c0-17.93-8.020-33.3-17.77-46.090
	C 571.21,474.97, 503.78,541.54, 419,571.18C 431.52,580.44, 446.37,587.92, 463.61,587.92z M 323.050,28.080l-6.17,0 
	c-12.74,0.14-25.27,1.17-37.52,3.11c-5.63,3.55-9.39,9.77-9.39,16.89l0,40 c0,11.020, 8.97,20, 20,20l 60,0 c 11.030,0, 20-8.98, 20-20l0-40 
	c0-7.13-3.77-13.34-9.39-16.89C 348.32,29.25, 335.79,28.21, 323.050,28.080z M 319.96,548c 13.89,0, 27.52-1.13, 40.82-3.24
	C 366.29,541.2, 369.96,535.030, 369.96,528l0-40 c0-11.040-8.97-20-20-20l-60,0 c-11.030,0-20,8.96-20,20L 269.96,528 c0,7.030, 3.67,13.2, 9.18,16.76
	C 292.44,546.87, 306.070,548, 319.96,548z M 576.76,247.34c-3.55-5.57-9.75-9.3-16.84-9.3l-40,0 c-11.030,0-20,8.96-20,20l0,60 
	c0,11.020, 8.97,20, 20,20l 40,0 c 7.070,0, 13.26-3.71, 16.82-9.28c 2.030-12.79, 3.11-25.88, 3.18-39.22l0-3.090 
	C 579.84,273.16, 578.77,260.090, 576.76,247.34z M 380.18,139.86c-8.89,5.2-19.18,8.22-30.21,8.22l-60,0 
	c-11.040,0-21.33-3.030-30.21-8.22c-39.86,16.27-71.7,48.13-87.95,87.99c 5.18,8.89, 8.2,19.18, 8.2,30.2l0,60 
	c0,11-3.020,21.29-8.18,30.16c 16.26,39.88, 48.13,71.72, 88.010,87.97C 268.69,431.010, 278.96,428, 289.96,428l 60,0 
	c 11,0, 21.27,3.010, 30.14,8.16c 39.88-16.25, 71.75-48.090, 88.010-87.97c-5.17-8.87-8.18-19.16-8.18-30.16l0-60 
	c0-11.020, 3.020-21.31, 8.2-30.2C 451.88,187.98, 420.040,156.12, 380.18,139.86z M 63.16,247.34C 61.15,260.090, 60.080,273.16, 60,286.46
	l0,3.090 c 0.080,13.34, 1.15,26.43, 3.18,39.22C 66.74,334.33, 72.93,338.040, 80,338.040l 40,0 c 11.030,0, 20-8.98, 20-20l0-60 c0-11.040-8.97-20-20-20L 80,238.040 
	C 72.91,238.040, 66.72,241.77, 63.16,247.34z M 559.92,378.040l-40,0 c-6.97,0-13.64-1.25-19.87-3.44
	c-19.67,40.76-52.74,73.83-93.54,93.48c 2.2,6.23, 3.46,12.93, 3.46,19.92L 409.97,528 c0,1.35-0.12,2.68-0.21,4
	c 71.23-26.31, 127.88-82.95, 154.19-154.18C 562.62,377.92, 561.28,378.040, 559.92,378.040z M 233.43,468.060
	c-40.82-19.63-73.94-52.68-93.61-93.44c-6.21,2.17-12.86,3.42-19.81,3.42L 80,378.040 c-1.36,0-2.69-0.12-4.020-0.21
	C 102.29,449.050, 158.94,505.7, 230.17,532c-0.090-1.33-0.21-2.66-0.21-4l0-40 C 229.96,480.99, 231.22,474.31, 233.43,468.060z
	 M 80,198.040l 40,0 c 6.96,0, 13.62,1.25, 19.84,3.42c 19.65-40.82, 52.76-73.85, 93.55-93.54c-2.19-6.21-3.44-12.87-3.44-19.84l0-40 
	c0-1.39, 0.12-2.73, 0.21-4.080c-71.26,26.31-127.93,82.99-154.23,154.24C 77.29,198.16, 78.63,198.040, 80,198.040z M 406.56,107.84
	c 40.85,19.65, 73.96,52.73, 93.62,93.57c 6.19-2.15, 12.81-3.38, 19.74-3.38l 40,0 c 1.37,0, 2.71,0.12, 4.060,0.2
	c-26.3-71.25-82.97-127.93-154.23-154.24c 0.090,1.35, 0.21,2.7, 0.21,4.080l0,40 C 409.96,95.010, 408.73,101.63, 406.56,107.84z
	 M 20,430.030L 20,448 C 20,525.19, 82.8,588, 160,588l 22.76,0 c 0.76-0.040, 1.53-0.080, 2.52-0.080c 15.96,0, 29.84-6.41, 41.75-14.67
	c-87.81-28.59-157.85-96.54-189.2-183.090C 29.13,401.48, 21.68,414.78, 20,430.030z M 185.28-11.92c-1,0-1.79-0.040-2.69-0.080L 160-12 
	C 82.8-12, 20,50.79, 20,128l0,37.19 c 1.39,12.58, 6.72,23.83, 13.42,33.71c 28.8-92.73, 101.41-166.13, 193.59-196.15
	C 215.12-5.52, 201.25-11.92, 185.28-11.92z M 619.69,158.45c0-2.25, 0.1-4.18, 0.31-5.96L 620,128 c0-77.21-62.8-140-140-140l-13.7,0 
	c-0.81,0.040-1.63,0.080-2.69,0.080c-17.27,0-32.12,7.46-44.62,16.74c 89.090,31.15, 159.020,103.090, 187.31,193.48
	C 613.95,186.83, 619.69,173.55, 619.69,158.45z" data-tags="help" />
<glyph unicode="&#xe01d;" d="M 580,576.5L 60,576.5 c-33.13,0-60-26.86-60-60l0-380 c0-33.13, 26.87-60, 60-60l 189.96,0 l0-60 l-50,0 c-11.040,0-20-8.95-20-20
	c0-11.040, 8.96-20, 20-20l 240,0 c 11.040,0, 20,8.96, 20,20c0,11.050-8.96,20-20,20l-50,0 l0,60 L 580,76.5 c 33.13,0, 60,26.88, 60,60l0,380 C 640,549.64, 613.13,576.5, 580,576.5z
	 M 60,536.5l 520,0 c 11.030,0, 20-8.96, 20-20l0-0.080 L 40,516.42 L 40,516.5 C 40,527.53, 48.97,536.5, 60,536.5z M 600,496.42l0-300 L 40,196.42 l0,300 L 600,496.42 z M 349.96,16.5l-60,0 l0,60 l 60,0 L 349.96,16.5 z
	 M 580,116.5L 389.96,116.5 l0,0l-140,0 l0,0L 60,116.5 c-11.030,0-20,8.96-20,20l0,39.92 l 560,0 l0-39.92 C 600,125.46, 591.030,116.5, 580,116.5z" data-tags="imac" />
<glyph unicode="&#xe01e;" d="M 580,608L 60,608 C 26.88,608,0,581.13,0,548l0-520 c0-33.13, 26.88-60, 60-60l 520,0 c 33.14,0, 60,26.87, 60,60L 640,548 C 640,581.13, 613.14,608, 580,608z
		 M 60,568l 520,0 c 11.040,0, 20-8.97, 20-20l0-409.99 l-67.15,0 l-70.86,147.96c-2.97,6.21-8.93,10.46-15.78,11.24
		c-6.78,0.74-13.59-2.030-17.89-7.41l-45.7-57.33L 274.45,408.56c-3.81,6.19-10.8,9.77-17.99,9.5
		c-7.29-0.34-13.81-4.63-17.010-11.18L 107.71,138.010L 40,138.010 L 40,548 C 40,559.030, 48.98,568, 60,568z M 152.3,138.090l 107.090,218.57l 104.060-169.42
		c 3.4-5.56, 9.32-9.090, 15.82-9.49c 6.62-0.4, 12.79,2.41, 16.86,7.49l 43.57,54.67l 48.77-101.82L 152.3,138.090 z M 580,8L 60,8 
		c-11.020,0-20,8.97-20,20l0,70.010 l 560,0 L 600,28 C 600,16.97, 591.040,8, 580,8zM 460.040,348c 44.18,0, 80,35.82, 80,80s-35.82,80-80,80s-80-35.82-80-80S 415.86,348, 460.040,348z M 460.040,468
		c 22.050,0, 40-17.94, 40-40s-17.95-40-40-40c-22.070,0-40,17.94-40,40S 437.97,468, 460.040,468z" data-tags="image" />
<glyph unicode="&#xe01f;" d="M 639.96,245.93l0,45 l-0.12,0 c 0.34,11.86-5.11,29-19.91,54.16c-23.53,39.96-80,140.080-80,140.080
		c-20,29.92-40,60-90,60L 323.81,545.17 l-7.69,0 L 190,545.17 c-50,0-70-30.080-90-60c0,0-56.47-100.12-80-140.080c-14.32-24.32-19.95-41.21-19.99-53.010L0,292.080 l0-46.91 
		l0-10.080 l0-149.92 c0-33.14, 26.87-60, 60-60l 520,0 c 33.13,0, 60,26.86, 60,60l0,160 C 640,245.42, 639.96,245.68, 639.96,245.93z M 54.47,324.8
		c 22.25,37.81, 72.59,126.93, 79.62,139.39c 19.5,29.12, 28.81,40.98, 55.91,40.98l 126.12,0 l 7.69,0 l 126.12,0 c 27.1,0, 36.41-11.86, 55.91-40.98
		c 7.030-12.46, 57.37-101.58, 79.62-139.39c 4.89-8.3, 8.14-14.79, 10.29-19.73c-0.69,0-1.43,0-2.19,0
		c-2.29,0-4.56,0.020-6.76,0.040c-2.34,0.040-4.61,0.060-6.8,0.060L 580,305.17 l-0.070,0 L 448.15,305.17 L 430,305.17 c-11.32,0-17.84-3.83-20.080-10.080
		l-30-80c-5.68-11.66-12.56-20-29.96-20l-60,0 c-20.93,0-26.14,10-30.040,20l-30,80c-4.22,10.080-15.7,10.080-19.96,10.080l-13.58,0 L 60,305.17 
		c-2.21,0-4.5-0.020-6.88-0.060c-2.2-0.020-4.46-0.040-6.76-0.040c-0.76,0-1.49,0-2.19,0
		C 46.33,310.010, 49.58,316.5, 54.47,324.8z M 600,245.17l0-13.73 l0-146.27 c0-11.040-8.97-20-20-20L 60,65.17 c-11.030,0-20,8.96-20,20L 40,228.84 l0,16.33 l0,19.92 
		l 19.28,0 C 59.52,265.11, 59.76,265.17, 60,265.17l 138.42,0 l 24.050-64.12l 0.090-0.23l 0.1-0.25c 11.76-30.18, 34.39-45.47, 67.3-45.47l 60,0 
		c 30.010,0, 52.19,14.3, 65.92,42.48l 0.83,1.7l 0.66,1.78l 24.050,64.12l 133.010,0 l 5.5,0 c 0.030,0, 0.050,0, 0.070,0l 20,0 L 600,245.17 zM 200,425.090l 239.96,0 c 11.040,0, 20,8.95, 20,20c0,11.040-8.96,20-20,20L 200,465.090 c-11.040,0-20-8.96-20-20
		C 180,434.040, 188.96,425.090, 200,425.090zM 160,345.090l 319.96,0 c 11.040,0, 20,8.95, 20,20c0,11.040-8.96,20-20,20L 160,385.090 c-11.040,0-20-8.96-20-20
		C 140,354.040, 148.96,345.090, 160,345.090z" data-tags="inbox" />
<glyph unicode="&#xe020;" d="M 581.35,549.35c-39.060,39.050-90.25,58.57-141.43,58.57c-51.19,0-102.38-19.52-141.43-58.56
		c-57.97-57.99-72.81-142.68-44.71-214.43L 23.5,104.65c-31.23-31.24-31.23-81.89,0-113.13c 15.63-15.63, 36.090-23.44, 56.56-23.44
		c 20.49,0, 40.96,7.81, 56.58,23.44l 16.58,16.58l 46.82,0 c 22.090,0, 40,17.91, 40,40l0,39.94 l 39.94,0 c 22.090,0, 40,17.91, 40,40l0,46.82 l 46.95,46.93
		c 23.46-9.18, 48.3-13.77, 73.13-13.77c 51.13,0, 102.25,19.47, 141.29,58.5C 659.45,344.62, 659.45,471.25, 581.35,549.35z M 553.070,294.8
		c-30.18-30.18-70.31-46.79-113.010-46.79c-20.16,0-39.86,3.71-58.55,11.030c-4.73,1.85-9.67,2.74-14.57,2.74
		c-10.41,0-20.64-4.060-28.28-11.71l-46.95-46.94c-7.5-7.5-11.72-17.68-11.72-28.28l0-46.82 l-39.94,0 c-22.090,0-40-17.9-40-40l0-39.94 
		l-46.82,0 c-10.61,0-20.78-4.21-28.28-11.72l-16.58-16.57c-7.56-7.56-17.6-11.73-28.3-11.73c-10.66,0-20.72,4.16-28.28,11.72
		c-7.54,7.56-11.7,17.6-11.7,28.28s 4.16,20.73, 11.7,28.29l 230.29,230.28c 11.23,11.23, 14.75,28.070, 8.96,42.86
		c-23.22,59.29-9.18,126.63, 35.74,171.56c 30.21,30.21, 70.39,46.86, 113.14,46.86c 42.73,0, 82.91-16.64, 113.14-46.86
		c 30.21-30.22, 46.86-70.4, 46.86-113.14C 599.92,365.19, 583.28,325.020, 553.070,294.8zM 451.99,506.39c-7.81,7.8-18.050,11.71-28.28,11.71c-10.25,0-20.49-3.91-28.3-11.71l-14.14-14.14
		c-15.61-15.63-15.61-40.96,0-56.58l 84.86-84.84c 7.81-7.81, 18.050-11.72, 28.28-11.72s 20.47,3.91, 28.28,11.72l 14.14,14.14
		c 15.63,15.63, 15.63,40.95,0,56.56L 451.99,506.39z M 522.7,379.11l-14.14-14.14c-3.77-3.78-8.79-5.86-14.14-5.86
		s-10.37,2.080-14.14,5.86l-84.86,84.84c-7.79,7.8-7.79,20.5,0,28.29l 14.14,14.14c 3.79,3.78, 8.81,5.86, 14.16,5.86
		c 5.33,0, 10.35-2.080, 14.14-5.86l 84.84-84.85C 530.49,399.6, 530.49,386.9, 522.7,379.11z" data-tags="key" />
<glyph unicode="&#xe021;" d="M 599.96,158.030L 599.96,457.97 c0,33.13-26.87,60-60,60l-440,0 c-33.13,0-60-26.87-60-60l0-299.93 L0,158.040 l0-60 c0-33.13, 26.87-60, 60-60l 520,0 
		c 33.13,0, 60,26.88, 60,60l0,60 L 599.96,158.040 z M 79.96,457.89l0,0.080 c0,11.030, 8.97,20, 20,20l 440,0 c 11.030,0, 20-8.97, 20-20l0-0.080 l0-299.85 l-20,0 L 539.96,417.97 
		c0,11.040-8.96,20-20,20l-400,0 c-11.040,0-20-8.96-20-20l0-259.93 l-20,0 L 79.96,457.89 z M 519.96,417.97l0-259.93 l-400,0 L 119.96,417.97 L 519.96,417.97 z M 600,98.030
		c0-11.030-8.97-20-20-20L 60,78.030 c-11.030,0-20,8.97-20,20l0,20 l 560,0 L 600,98.030 zM 310,457.79A10,10 180 1 1 330,457.78999999999996A10,10 180 1 1 310,457.78999999999996z" data-tags="laptop" />
<glyph unicode="&#xe022;" d="M 634.14,602.13c-4.37,4.38-10.47,6.46-16.64,5.7C 602.42,605.94, 246.26,559.81, 92.75,422.11
	c-4.060-3.57-8.060-7.25-11.96-11.15c-95.080-95.080-99.54-246.91-13.54-347.42l-61.4-61.39c-7.81-7.81-7.81-20.47,0-28.28
	C 9.77-30.040, 14.88-31.99, 20-31.99s 10.23,1.95, 14.14,5.86l 61.39,61.39c 46.33-39.73, 104.65-61.46, 166.34-61.46
	c 0.010,0, 0.010,0, 0.020,0c 68.39,0, 132.7,26.64, 181.070,75c 3.9,3.91, 7.6,7.91, 11.040,11.84
	C 591.8,214.26, 637.95,570.41, 639.84,585.51C 640.62,591.62, 638.51,597.78, 634.14,602.13z M 424.090,87.19
	c-3.030-3.44-6.14-6.84-9.42-10.12c-40.81-40.8-95.070-63.28-152.78-63.28l-0.010,0 c-51.010,0-99.27,17.62-137.97,49.84l 74.3,74.3
	l 201.76,0 c 11.040,0, 20,8.96, 20,20c0,11.050-8.96,20-20,20L 238.2,177.93 l 110,110l 121.76,0.020c 11.040,0, 20,8.95, 20,20c0,11.040-8.96,20-20,20l-81.76-0.020
	l 125.88,125.88c 7.81,7.81, 7.81,20.47,0,28.28s-20.47,7.81-28.28,0L 359.96,356.25l0,81.68 c0,11.040-8.96,20-20,20s-20-8.96-20-20
	l0-121.68 L 210,206.29L 210,367.93 c0,11.040-8.96,20-20,20s-20-8.96-20-20l0-201.64 l-74.36-74.36c-70.46,84.82-66.040,211.27, 13.41,290.72
	c 3.3,3.3, 6.71,6.43, 10.27,9.57C 240.67,501.060, 511.16,550.94, 596.32,564.32C 582.93,479.16, 533.040,208.65, 424.090,87.19z" data-tags="leaf" />
<glyph unicode="&#xe023;" d="M 517.71,408c0,110.45-89.54,200-200,200s-200-89.55-200-200c0-36.56, 9.97-70.73, 27.11-100.22L 144.47,308
		l 79.13-145.93l 0.020,0.080c 4.1-8.56, 10.24-15.9, 17.69-21.63c-8.22-6.4-13.6-16.28-13.6-27.51c0-9.81, 4.060-18.65, 10.56-25
		c-6.49-6.35-10.56-15.19-10.56-25c0-13.89, 8.16-25.79, 19.89-31.44c 3.47-35.42, 33.32-63.090, 69.65-63.090
		c 36.14,0, 65.88,27.4, 69.6,62.56c 12.27,5.43, 20.86,17.68, 20.86,31.97c0,9.81-4.060,18.65-10.56,25
		c 6.49,6.35, 10.56,15.19, 10.56,25c0,11.23-5.38,21.11-13.61,27.51c 7.47,5.76, 13.63,13.13, 17.73,21.73l 0.050-0.18L 491.010,308
		l-0.45-0.28C 507.71,337.22, 517.71,371.41, 517.71,408z M 317.25-11.53c-23.97,0-44.020,16.98-48.86,39.53l 97.71,0 
		C 361.27,5.45, 341.22-11.53, 317.25-11.53z M 387.71,63c0-8.27-6.73-15-15-15l-110,0 c-8.27,0-15,6.73-15,15
		s 6.73,15, 15,15l 110,0 C 380.98,78, 387.71,71.27, 387.71,63z M 372.71,128c 8.27,0, 15-6.73, 15-15s-6.73-15-15-15l-110,0 
		c-8.27,0-15,6.73-15,15s 6.73,15, 15,15l 15,0 l 80,0 L 372.71,128 z M 455.98,327.82c-0.98-1.68-1.83-3.42-2.54-5.19L 378.3,184.050
		c-0.96-1.46-1.82-3-2.59-4.61c-2.56-5.37-8.45-10.99-17.24-11.33l 9.16,119.11c 0.42,5.51-3.7,10.31-9.2,10.74
		c-5.59,0.42-10.32-3.7-10.74-9.2L 338.41,168l-41.45,0 l-9.29,120.76c-0.42,5.5-5.2,9.62-10.74,9.2
		c-5.5-0.42-9.62-5.23-9.2-10.74l 9.16-119.1c-8.75,0.36-14.64,5.95-17.2,11.3c-0.6,1.24-1.25,2.44-1.95,3.59
		l-76.040,140.22c-0.66,1.58-1.44,3.13-2.31,4.64C 165.21,352.3, 157.71,380, 157.71,408c0,88.22, 71.78,160, 160,160s 160-71.78, 160-160
		C 477.71,379.99, 470.2,352.26, 455.98,327.82zM 286.31,534.18c-38.42-9.54-70.010-35.67-86.67-71.7c-2.31-5.010-0.13-10.95, 4.88-13.27
		c 1.36-0.63, 2.79-0.92, 4.19-0.92c 3.78,0, 7.4,2.15, 9.090,5.81c 13.89,30.040, 41.3,52.73, 73.33,60.67
		c 5.36,1.33, 8.62,6.75, 7.29,12.11C 297.090,532.24, 291.63,535.5, 286.31,534.18z" data-tags="light-bulb" />
<glyph unicode="&#xe024;" d="M 254.97-32c-2.6,0-5.22,0.51-7.73,1.56c-8.59,3.61-13.55,12.68-11.96,21.86l 36.42,209.55
	L 106.6,187.85c-7.73-0.62-15.25,3.37-19.060,10.21c-3.8,6.85-3.27,15.27, 1.38,21.58L 368.88,599.86
	c 5.5,7.47, 15.42,10.18, 23.96,6.53c 8.54-3.65, 13.44-12.69, 11.84-21.84l-36.45-208.18l 164.18,21.25
	c 7.84,1.020, 15.65-2.74, 19.74-9.58c 4.090-6.84, 3.72-15.45-0.93-21.92l-280-389.79C 267.37-29.030, 261.26-32, 254.97-32z
	 M 295.81,242.95c 5.61,0, 10.98-2.35, 14.79-6.53c 4.16-4.57, 5.98-10.8, 4.92-16.89l-25.9-149.020l 202.24,281.54l-145.44-18.83
	c-6.35-0.82-12.63,1.42-17.020,6.020c-4.39,4.59-6.35,11-5.24,17.27l 26.45,151.070L 147.090,231.2l 147.14,11.68
	C 294.76,242.93, 295.28,242.95, 295.81,242.95z" data-tags="lightning" />
<glyph unicode="&#xe025;" d="M 321.32,247.99c-33.13,0-59.99-26.86-59.99-59.98c0-26.11, 16.72-48.28, 40-56.52l0-33.42 c0-11.040, 8.96-20, 20-20
		s 20,8.96, 20,20l0,33.42 c 23.28,8.26, 40,30.41, 40,56.52C 381.33,221.13, 354.46,247.99, 321.32,247.99z M 321.32,168.010
		c-11.030,0-19.99,8.96-19.99,20c0,11.020, 8.96,19.98, 19.99,19.98c 11.040,0, 20.010-8.96, 20.010-19.98
		C 341.33,176.97, 332.36,168.010, 321.32,168.010zM 541.33,387.99l-60.040,0 l0,60.020 c0,88.36-71.63,160-160,160s-160-71.64-160-160l0-60.020 l-59.96,0 c-33.13,0-60-26.86-60-60
		l0-300 c0-33.13, 26.87-60, 60-60l 440,0 c 33.13,0, 60,26.88, 60,60l0,300 C 601.33,361.13, 574.47,387.99, 541.33,387.99z M 201.29,448.010
		c0,66.15, 53.83,120, 120,120s 120-53.85, 120-120l0-60.020 l-19.96,0 l0,59.96 c0,55.25-44.79,100.040-100.040,100.040s-100.040-44.79-100.040-100.040
		l0-59.96 l-19.96,0 L 201.29,448.010 z M 401.33,387.99L 241.25,387.99 l0,59.96 c0,44.14, 35.91,80.040, 80.040,80.040s 80.040-35.9, 80.040-80.040L 401.33,387.99 z
		 M 561.33,27.99c0-11.020-8.97-20-20-20l-440,0 c-11.030,0-20,8.98-20,20l0,300 c0,11.040, 8.97,20, 20,20l 440,0 c 11.030,0, 20-8.96, 20-20L 561.33,27.99 z" data-tags="lock" />
<glyph unicode="&#xe026;" d="M 380,468.040l0-259.5 c0-33.090-26.91-60-60-60s-60,26.91-60,60l0,259.5 L 80,468.040 l0-260 c0-132.56, 107.45-240, 240-240s 240,107.44, 240,240
		l0,260 L 380,468.040 z M 520,428.040l0-60.080 L 420,367.96 l0,60.080 L 520,428.040 z M 220,428.040l0-60.080 L 120,367.96 l0,60.080 L 220,428.040 z M 320,8.030c-110.28,0-200,89.71-200,200L 120,327.96 l 100,0 l0-119.41 
		c0-55.14, 44.86-100, 100-100s 100,44.86, 100,100L 420,327.96 l 100,0 l0-119.92 C 520,97.74, 430.28,8.030, 320,8.030zM 494.080,522.11l-80,80c-3.78,3.78-8.8,5.86-14.14,5.86s-10.36-2.080-14.14-5.86l-65.84-65.83
		l-65.84,65.83c-3.78,3.78-8.8,5.86-14.14,5.86s-10.36-2.080-14.14-5.86l-80-80c-7.8-7.8-7.8-20.48,0-28.29
		c 3.78-3.77, 8.8-5.86, 14.14-5.86s 10.36,2.090, 14.14,5.86l 65.86,65.86l 65.84-65.84c 3.78-3.77, 8.8-5.86, 14.14-5.86
		s 10.36,2.090, 14.14,5.86l 65.84,65.84l 65.86-65.86c 3.78-3.77, 8.8-5.86, 14.14-5.86s 10.36,2.090, 14.14,5.86
		C 501.88,501.62, 501.88,514.31, 494.080,522.11z" data-tags="magnet" />
<glyph unicode="&#xe027;" d="M 329.29,607.96c-127.020,0-230-102.97-230-230c0-51.74, 18.85-98.83, 45.94-137.93l 166.72-261.95
		c 2.49-4.32, 6.56-7.66, 11.56-9.18c 1.91-0.57, 3.86-0.86, 5.78-0.86c 1.17,0, 2.33,0.12, 3.47,0.31
		c 0.8,0.14, 1.59,0.33, 2.38,0.57c 4.83,1.46, 8.8,4.67, 11.29,8.79L 516.69,244.7c-0.040-0.080-0.060-0.12-0.060-0.12
		c 0.010,0, 0.060,0.1, 0.090,0.16c 0.010,0, 0.010,0.020, 0.020,0.020c 26.76,37.6, 42.55,83.54, 42.55,133.2
		C 559.29,504.99, 456.31,607.96, 329.29,607.96z M 494.81,284.7l-0.050,0 l-11.8-18.5L 329.33,25.27L 178.98,261.52l-0.43,0.66
		l-0.44,0.64c-17.71,25.55-38.82,66.27-38.82,115.14c0,104.77, 85.23,190, 190,190s 190-85.23, 190-190
		C 519.29,344.95, 510.88,313.080, 494.81,284.7zM 329.35,477.57c-55.14,0-100-44.86-100-100s 44.86-100, 100-100s 100,44.86, 100,100S 384.49,477.57, 329.35,477.57z
		 M 329.35,317.86c-32.98,0-59.71,26.74-59.71,59.71c0,32.99, 26.73,59.71, 59.71,59.71s 59.71-26.72, 59.71-59.71
		C 389.060,344.6, 362.33,317.86, 329.35,317.86z" data-tags="map-marker" />
<glyph unicode="&#xe028;" d="M 20.020,417.98c 11.040,0, 20,8.96, 20,20L 40.020,489.7 l 55.86-55.86c 3.91-3.91, 9.020-5.86, 14.14-5.86
		s 10.23,1.95, 14.14,5.86c 7.81,7.81, 7.81,20.49,0,28.28L 68.3,517.98l 51.72,0 c 11.040,0, 20,8.96, 20,20c0,11.050-8.96,20-20,20l-100,0 
		c-1.31,0-2.62-0.14-3.92-0.39c-0.6-0.12-1.15-0.35-1.73-0.51c-0.67-0.2-1.35-0.35-2-0.63
		C 11.69,556.18, 11.060,555.79, 10.42,555.42c-0.5-0.27-1.020-0.49-1.48-0.8c-2.2-1.46-4.080-3.34-5.55-5.55
		C 3.060,548.59, 2.83,548.060, 2.56,547.55C 2.21,546.91, 1.83,546.3, 1.55,545.64S 1.12,544.29, 0.92,543.62
		C 0.75,543.040, 0.53,542.49, 0.41,541.91c-0.25-1.29-0.39-2.6-0.39-3.93l0-100 C 0.020,426.95, 8.97,417.98, 20.020,417.98zM 120.020,57.98L 68.3,57.98 l 55.86,55.86c 7.81,7.81, 7.81,20.47,0,28.28s-20.47,7.81-28.28,0l-55.86-55.86
		l0,51.72 c0,11.050-8.96,20-20,20s-20-8.95-20-20l0-100 c0-1.31, 0.14-2.62, 0.39-3.91c 0.12-0.61, 0.34-1.15, 0.51-1.72
		c 0.21-0.68, 0.36-1.37, 0.63-2.030s 0.65-1.27, 1.010-1.91c 0.27-0.51, 0.5-1.040, 0.83-1.52
		c 1.46-2.19, 3.35-4.080, 5.55-5.55c 0.47-0.31, 0.99-0.53, 1.48-0.8c 0.64-0.35, 1.27-0.74, 1.95-1.040
		c 0.65-0.25, 1.33-0.41, 2-0.61c 0.58-0.18, 1.13-0.41, 1.73-0.53c 1.29-0.25, 2.61-0.39, 3.92-0.39l 100,0 
		c 11.040,0, 20,8.96, 20,20C 140.020,49.040, 131.060,57.98, 120.020,57.98zM 639.59,541.91c-0.12,0.59-0.34,1.13-0.51,1.72c-0.21,0.66-0.36,1.35-0.63,2.010
		s-0.65,1.27-1.010,1.91c-0.27,0.51-0.5,1.040-0.83,1.52c-1.46,2.21-3.35,4.080-5.55,5.55
		c-0.47,0.31-0.99,0.53-1.48,0.8c-0.64,0.37-1.27,0.76-1.95,1.040c-0.65,0.27-1.33,0.43-2,0.63
		c-0.58,0.16-1.13,0.39-1.73,0.51c-1.29,0.25-2.61,0.39-3.92,0.39l-100,0 c-11.040,0-20-8.95-20-20c0-11.040, 8.96-20, 20-20l 51.72,0 
		l-55.86-55.86c-7.81-7.79-7.81-20.47,0-28.28c 3.91-3.91, 9.020-5.86, 14.14-5.86s 10.23,1.95, 14.14,5.86l 55.86,55.86l0-51.72 
		c0-11.040, 8.96-20, 20-20s 20,8.96, 20,20l0,100 C 639.98,539.31, 639.84,540.62, 639.59,541.91zM 619.98,157.98c-11.040,0-20-8.95-20-20l0-51.72 l-55.86,55.86c-7.81,7.81-20.47,7.81-28.28,0
		s-7.81-20.47,0-28.28l 55.86-55.86l-51.72,0 c-11.040,0-20-8.95-20-20c0-11.040, 8.96-20, 20-20l 100,0 c 1.31,0, 2.63,0.14, 3.92,0.39
		c 0.6,0.12, 1.15,0.35, 1.73,0.53c 0.67,0.2, 1.35,0.35, 2,0.61c 0.68,0.29, 1.31,0.68, 1.95,1.040
		c 0.5,0.27, 1.020,0.49, 1.48,0.8c 2.2,1.46, 4.080,3.36, 5.55,5.55c 0.33,0.49, 0.56,1.020, 0.83,1.52
		c 0.35,0.64, 0.73,1.25, 1.010,1.91s 0.43,1.35, 0.63,2.030c 0.17,0.57, 0.39,1.11, 0.51,1.72
		c 0.25,1.29, 0.39,2.6, 0.39,3.91l0,100 C 639.98,149.040, 631.030,157.98, 619.98,157.98zM 519.98,197.98l0,180 c0,33.14-26.87,60-60,60l-280,0 c-33.13,0-60-26.86-60-60l0-180 c0-33.13, 26.87-60, 60-60l 280,0 
		C 493.12,137.98, 519.98,164.86, 519.98,197.98z M 479.98,197.98c0-11.020-8.97-20-20-20l-280,0 c-11.030,0-20,8.98-20,20l0,180 
		c0,11.040, 8.97,20, 20,20l 280,0 c 11.030,0, 20-8.96, 20-20L 479.98,197.98 z" data-tags="maximise" />
<glyph unicode="&#xe029;" d="M 580.11,448.18L 580.11,588 c0,7.14-3.81,13.75-10,17.31c-6.19,3.57-13.81,3.57-20,0L 312.58,468.19L 60,468.19 
	c-33.13,0-60-26.87-60-60l0-160 c0-33.13, 26.87-60, 60-60l 46.41,0 l 53.55-150c 11.39-29.92, 36.87-60, 70-60l 50,0 c 33.13,0, 50.2,30.080, 40,60l-53.55,150l 46,0 
	l 237.71-137.25c 3.1-1.78, 6.54-2.68, 10-2.68s 6.9,0.9, 10,2.68c 6.19,3.57, 10,10.18, 10,17.32L 580.12,208.19 
	c 33.090,0.060, 59.89,26.89, 59.89,60l0,120 C 640,421.29, 613.19,448.12, 580.11,448.18z M 282.17,25.090c 1.3-3.98, 0.52-6.35, 0.48-6.52
	c-0.010-0.010-0.75-0.38-2.69-0.38l-50,0 c-10.92,0-25.14,14.85-32.48,33.88l-48.59,136.12l 75.060,0 L 282.17,25.090z M 279.96,228.19L 60,228.19 
	c-11.030,0-20,8.97-20,20l0,160 c0,11.030, 8.97,20, 20,20l 219.96,0 L 279.96,228.19 z M 540.11,102.92l-220.15,127.1L 319.96,426.27 l 220.15,127.1L 540.11,102.92 z
	 M 600,268.19c0-11-8.92-19.93-19.89-20L 580.11,408.17 C 591.080,408.11, 600,399.18, 600,388.19L 600,268.19 z" data-tags="megaphone" />
<glyph unicode="&#xe02a;" d="M 320,168c 66.27,0, 120,53.73, 120,120L 440,488 c0,66.27-53.73,120-120,120S 200,554.28, 200,488l0-200 C 200,221.73, 253.73,168, 320,168z
		 M 240,488c0,44.11, 35.89,80, 80,80s 80-35.89, 80-80l0-200 c0-44.11-35.89-80-80-80s-80,35.89-80,80L 240,488 zM 500,348c-11.040,0-20-8.96-20-20L 480,288 c0-88.22-71.78-160-160-160s-160,71.78-160,160L 160,328 c0,11.040-8.96,20-20,20
		s-20-8.96-20-20L 120,288 c0-103.53, 79.070-188.92, 180-198.99L 300,8 l-99.96,0 c-11.040,0-20-8.96-20-20s 8.96-20, 20-20l 240,0 c 11.040,0, 20,8.96, 20,20
		s-8.96,20-20,20L 340,8 l0,81.020 C 440.93,99.080, 520,184.47, 520,288L 520,328 C 520,339.040, 511.040,348, 500,348z" data-tags="mic" />
<glyph unicode="&#xe02b;" d="M 580,586.49L 60,586.49 c-33.13,0-60-26.86-60-60l0-177.070 l0-22.94 l0-276.97 c0-33.13, 26.87-60, 60-60l 520,0 c 33.13,0, 60,26.87, 60,60L 640,326.49 
		l0,22.94 L 640,526.49 C 640,559.63, 613.13,586.49, 580,586.49z M 40,69.5l0,39.92 l 560,0 l0-39.92 L 40,69.5 z M 40,129.43l0,40 l 560,0 l0-40 L 40,129.43 z M 40,189.43l0,40 l 560,0 l0-40 L 40,189.43 z M 40,249.43
		l0,20.55 c 6.27-2.22, 12.98-3.49, 20-3.49l 520,0 c 7.020,0, 13.73,1.27, 20,3.49l0-20.55 L 40,249.43 z M 580,29.51L 60,29.51 c-11.030,0-20,8.96-20,19.99l 560,0 
		C 600,38.48, 591.030,29.51, 580,29.51z M 600,326.49c0-11.030-8.97-20-20-20L 60,306.49 c-11.030,0-20,8.97-20,20l0,22.94 L 40,526.49 c0,11.030, 8.97,20, 20,20l 520,0 
		c 11.030,0, 20-8.97, 20-20l0-177.070 L 600,326.49 zM 319.96,529.44c-55.22,0-100-44.78-100-100c0-55.23, 44.78-100, 100-100c 55.23,0, 100,44.78, 100,100
		C 419.96,484.66, 375.2,529.44, 319.96,529.44z M 319.96,349.44c-44.11,0-80,35.89-80,80c0,44.11, 35.89,80, 80,80s 80-35.89, 80-80
		C 399.96,385.32, 364.070,349.44, 319.96,349.44zM 170,359.43L 90,359.43 c-5.53,0-10-4.47-10-10c0-5.52, 4.47-10, 10-10l 80,0 c 5.53,0, 10,4.48, 10,10
		C 180,354.95, 175.53,359.43, 170,359.43zM 170,519.44L 90,519.44 c-5.53,0-10-4.48-10-10s 4.47-10, 10-10l 80,0 c 5.53,0, 10,4.48, 10,10S 175.53,519.44, 170,519.44zM 549.96,359.43l-80,0 c-5.53,0-10-4.47-10-10c0-5.52, 4.47-10, 10-10l 80,0 c 5.53,0, 10,4.48, 10,10
		C 559.96,354.95, 555.49,359.43, 549.96,359.43zM 549.96,519.44l-80,0 c-5.53,0-10-4.48-10-10s 4.47-10, 10-10l 80,0 c 5.53,0, 10,4.48, 10,10S 555.49,519.44, 549.96,519.44zM 304.87,450.29c 2.52,12.48, 22.67,9.83, 31.54,4.2c 7.2-5.28, 15.83,5.16, 7.68,11.75
		c-3.92,3.010-8.9,5.040-14.23,6.13c 0.010,0.16, 0.1,0.3, 0.1,0.47l0,6.59 c0,5.52-4.47,10-10,10s-10-4.48-10-10l0-6.59 
		c0-0.32, 0.16-0.59, 0.18-0.89c-10.5-2.66-19.18-9.37-20.5-20.45c-3.71-34.060, 46.18-23.39, 47.73-41.14
		c-1.8-17.030-27.1-11.99-36.93-5.28c-4.080,3.36-7.56,2.28-10.67-0.84c-2.16-3.24-2.29-8.52, 1.68-11.75
		c 4.56-3.77, 11.24-6.39, 18.52-7.65l0-5.4 c0-5.52, 4.47-10, 10-10s 10,4.48, 10,10l0,5.68 c 12.37,2.68, 22.61,10.38, 23.010,24.88
		C 353.81,441.9, 301.63,430.63, 304.87,450.29z" data-tags="money-stack" />
<glyph unicode="&#xe02c;" d="M 393.5,535.070c-27.52,19.92-53.54,38.75-53.54,52.78c0,11.040-8.95,20-20,20c-11.040,0-20-8.96-20-20l0-447.59 
	c-23.36,17.24-55,27.89-89.92,27.89c-71.82,0-130-44.77-130-100s 58.18-100, 130-100c 71.8,0, 130,44.77, 130,100c0,1.36-0.2,2.68-0.27,4.020
	c 0.060,0.64, 0.2,1.27, 0.2,1.93L 339.97,327.92 c 41.6-1.37, 141.21-12.89, 182.38-89.53c 3.55-6.6, 10.39-10.55, 17.62-10.55
	c 1.62,0, 3.26,0.2, 4.88,0.61c 8.89,2.25, 15.12,10.23, 15.12,19.39C 559.96,414.58, 459.79,487.080, 393.5,535.070z M 210.040,8.15
	c-48.79,0-90,27.48-90,60s 41.21,60, 90,60s 90-27.48, 90-60S 258.83,8.15, 210.040,8.15z M 339.96,368L 339.96,525.19 c 9.1-7.31, 19.26-14.69, 30.080-22.53
	c 53.38-38.63, 123.4-89.32, 143.98-192.080C 456.35,358.78, 377.44,367, 339.96,368z" data-tags="music-note" />
<glyph unicode="&#xe02d;" d="M 590,477.96l-100,100c-28.69,28.69-60,30-89.96,30l-200,0 c-33.13,0-60-26.87-60-60l0-19.99 L 79.96,527.97 c-33.13,0-60-26.87-60-60
		l0-439.92 c0-33.13, 26.87-60, 60-60l 360,0 c 33.13,0, 60,26.87, 60,60l0,19.99 l 60.080,0 c 33.13,0, 60,26.87, 60,60L 620.040,387.95 
		C 620.040,417.96, 616.58,451.37, 590,477.96z M 561.72,449.67c 0.55-0.56, 0.98-1.16, 1.49-1.73L 470,447.94 c-5.52,0-10,4.49-10,10L 460,551.19 
		c 0.57-0.53, 1.15-0.95, 1.72-1.51L 561.72,449.67z M 459.96,28.040c0-11.040-8.97-20-20-20l-360,0 c-11.030,0-20,8.96-20,20L 59.96,467.97 
		c0,11.030, 8.97,20, 20,20l 60.080,0 l0-379.93 c0-33.13, 26.87-60, 60-60l 259.92,0 L 459.96,28.040 z M 580.040,108.030c0-11.030-8.97-20-20-20l-360,0 
		c-11.030,0-20,8.97-20,20L 180.040,547.96 c0,11.030, 8.97,20, 20,20l 200,0 c 7.29,0, 13.87-0.13, 19.96-0.6l0-109.41 c0-27.56, 22.43-50, 50-50l 109.12,0 
		c 0.64-6.27, 0.92-12.91, 0.92-20L 580.040,108.030 zM 480.040,347.95l-80,0 l0,80 c0,11.050-8.96,20-20,20s-20-8.95-20-20l0-80 l-80,0 c-11.040,0-20-8.95-20-20c0-11.040, 8.96-20, 20-20l 80,0 l0-80 
		c0-11.040, 8.96-20, 20-20s 20,8.96, 20,20l0,80 l 80,0 c 11.040,0, 20,8.96, 20,20C 500.040,339, 491.080,347.95, 480.040,347.95z" data-tags="new-dowcument" />
<glyph unicode="&#xe02e;" d="M 359.65,528l-180,0 l0-140 l 180,0 L 359.65,528 z M 339.65,408l-140,0 L 199.65,508 l 140,0 L 339.65,408 zM 580,608L 160,608 c-33.13,0-60-26.86-60-60l0-60 L 29.95,488 C 13.4,487.98,0,474.56,0,458l0-430 c0-33.13, 26.87-60, 60-60l 520,0 c 33.13,0, 60,26.88, 60,60L 640,548 
		C 640,581.14, 613.13,608, 580,608z M 600,28c0-11.020-8.97-20-20-20L 60,8 c-11.030,0-20,8.98-20,20L 40,448 l 60,0 l0-379.92 c0-11.040, 8.96-20, 20-20s 20,8.96, 20,20L 140,448 
		l0,0.84 L 140,488 L 140,548 c0,11.040, 8.97,20, 20,20l 420,0 c 11.030,0, 20-8.96, 20-20L 600,28 zM 349.96,328L 190,328 c-5.53,0-10-4.47-10-10s 4.47-10, 10-10l 159.96,0 c 5.53,0, 10,4.47, 10,10S 355.49,328, 349.96,328zM 349.96,248L 190,248 c-5.53,0-10-4.47-10-10c0-5.52, 4.47-10, 10-10l 159.96,0 c 5.53,0, 10,4.48, 10,10C 359.96,243.53, 355.49,248, 349.96,248zM 349.96,168.010L 190,168.010 c-5.53,0-10-4.48-10-10s 4.47-10, 10-10l 159.96,0 c 5.53,0, 10,4.48, 10,10S 355.49,168.010, 349.96,168.010zM 349.96,88.020L 190,88.020 c-5.53,0-10-4.48-10-10c0-5.53, 4.47-10, 10-10l 159.96,0 c 5.53,0, 10,4.47, 10,10
		C 359.96,83.54, 355.49,88.020, 349.96,88.020zM 549.94,328L 389.98,328 c-5.53,0-10-4.47-10-10s 4.47-10, 10-10l 159.96,0 c 5.53,0, 10,4.47, 10,10S 555.47,328, 549.94,328zM 549.94,408L 389.98,408 c-5.53,0-10-4.47-10-10c0-5.52, 4.47-10, 10-10l 159.96,0 c 5.53,0, 10,4.48, 10,10
		C 559.94,403.53, 555.47,408, 549.94,408zM 549.94,488L 389.98,488 c-5.53,0-10-4.47-10-10c0-5.52, 4.47-10, 10-10l 159.96,0 c 5.53,0, 10,4.48, 10,10
		C 559.94,483.53, 555.47,488, 549.94,488zM 549.94,248L 389.98,248 c-5.53,0-10-4.47-10-10c0-5.52, 4.47-10, 10-10l 159.96,0 c 5.53,0, 10,4.48, 10,10
		C 559.94,243.53, 555.47,248, 549.94,248zM 549.94,168.010L 389.98,168.010 c-5.53,0-10-4.48-10-10s 4.47-10, 10-10l 159.96,0 c 5.53,0, 10,4.48, 10,10S 555.47,168.010, 549.94,168.010zM 549.94,88.020L 389.98,88.020 c-5.53,0-10-4.48-10-10c0-5.53, 4.47-10, 10-10l 159.96,0 c 5.53,0, 10,4.47, 10,10
		C 559.94,83.54, 555.47,88.020, 549.94,88.020z" data-tags="news-paper" />
<glyph unicode="&#xe02f;" d="M 631.1,594.54c-6.33,4.23-14.5,4.5-21.1,0.71L 10.040,249.62c-6.96-4-10.85-11.78-9.87-19.75
	c 0.98-7.98, 6.62-14.59, 14.35-16.8l 175.21-50.24l 82.64-154.28c 3.3-6.18, 9.6-10.17, 16.59-10.54C 289.29-2, 289.64-2, 289.98-2
	c 6.61,0, 12.82,3.27, 16.56,8.79l 60.050,88.64l 0.53-0.32l 5.82,9.69l 3.45,5.080l 172.5-49c 5.6-1.6, 11.59-0.68, 16.46,2.52
	c 4.85,3.19, 8.090,8.34, 8.84,14.1L 639.8,575.3C 640.8,582.85, 637.43,590.31, 631.1,594.54z M 291.98,56.61l-66.010,123.24L 422.76,342.5
	c 8.52,7.040, 9.71,19.64, 2.68,28.15c-7.040,8.53-19.66,9.71-28.16,2.68L 192.12,203.75L 70.89,238.52L 584.55,534.43L 339.32,126.5
	L 291.98,56.61z M 537.55,105.68L 397.4,145.5l 186.23,309.79L 537.55,105.68z" data-tags="paper-plane" />
<glyph unicode="&#xe030;" d="M 622.35,505.5L 537.5,590.36c-23.43,23.42-61.43,23.42-84.85,0L 72.26,209.97l-3.1-3.090L 61.88,199.6
	c-12.15-12.17-19.98-27.6-22.71-44.67L 0.62-7.28c-1.6-6.76, 0.41-13.87, 5.32-18.77c 4.91-4.92, 12.010-6.93, 18.77-5.33
	l 162.21,38.57c 17.090,2.71, 32.52,10.55, 44.68,22.7l 7.28,7.29l 3.090,3.090l 380.4,380.39C 645.78,444.070, 645.78,482.080, 622.35,505.5z
	 M 180.62,46.69l-1.48-0.23l-1.46-0.33L 47.040,15.050l 31.040,130.63l 0.35,1.46l 0.23,1.5c 0.89,5.55, 2.86,10.57, 5.66,15.14
	l 111.42-111.43C 191.2,49.56, 186.18,47.57, 180.62,46.69z M 224.9,79.77L 111.77,192.92l 298.4,298.38l 28.28-28.28L 140.11,164.67
	l 14.14-14.14l 298.34,298.34l 28.28-28.28L 182.53,122.25l 14.14-14.14l 298.35,298.34l 28.28-28.28L 224.9,79.77z M 594.060,448.93
	l-42.48-42.48L 438.45,519.58l 42.48,42.48c 7.79,7.81, 20.49,7.81, 28.28,0l 84.85-84.84C 601.87,469.42, 601.87,456.73, 594.060,448.93z" data-tags="pencil" />
<glyph unicode="&#xe031;" d="M 499.62,248.040c-53.77,0-100.4-30.33-123.85-74.8c-76.71,32.46-138.11,94-170.42,170.78
		c 44.58,23.42, 75.030,70.1, 75.030,123.95c0,77.32-62.68,140-140,140s-140-62.68-140-140c 0.040-275.59, 223.060-499.040, 498.48-499.88
		c 0.25,0, 0.51-0.040, 0.76-0.040c 0.090,0, 0.17,0.020, 0.25,0.020c 0.18,0, 0.33-0.020, 0.51-0.020l0,0.040 
		c 76.97,0.43, 139.24,62.91, 139.24,139.96C 639.62,185.36, 576.94,248.040, 499.62,248.040z M 500.17,8.080c-0.2,0-0.39,0-0.59,0
		c-0.21,0-0.41,0-0.61,0C 246.14,8.84, 40.42,215.15, 40.38,467.96c0,55.14, 44.86,100, 100,100s 100-44.86, 100-100
		c0-37.23-20.55-71.15-53.63-88.54c-18.39-9.65-26.32-31.78-18.26-50.92c 36.11-85.82, 105.98-155.84, 191.7-192.11
		c 5.070-2.15, 10.36-3.18, 15.57-3.18c 14.43,0, 28.28,7.85, 35.4,21.37c 17.39,32.97, 51.29,53.46, 88.47,53.46c 55.14,0, 100-44.86, 100-100
		C 599.62,53.21, 555.010,8.37, 500.17,8.080zM 143.26,312c-2.25,5.060-8.13,7.34-13.19,5.1c-5.050-2.23-7.33-8.13-5.11-13.18
		c 14.86-33.61, 34.25-65.2, 57.63-93.87c 1.98-2.42, 4.85-3.69, 7.76-3.69c 2.22,0, 4.45,0.74, 6.31,2.27
		c 4.28,3.48, 4.92,9.79, 1.44,14.060C 175.85,249.97, 157.39,280.030, 143.26,312z" data-tags="phone" />
<glyph unicode="&#xe032;" d="M 588.7,556.69c-33.19,33.2-76.69,49.8-120.2,49.8l0-40 c 34.72,0, 67.35-13.54, 91.91-38.090
		c 50.68-50.68, 50.68-133.16,0-183.85L 426.060,210.21L 277.58,358.7l 91.92,91.93c 3.91,3.91, 3.91,10.23,0,14.14s-10.23,3.91-14.14,0
		l-91.92-91.93l-21.22,21.23L 376.57,528.41c 24.55,24.55, 57.2,38.090, 91.92,38.090l 0.010,40L 468.5,606.5 c-43.51-0.020-87.010-16.6-120.21-49.8
		L 51.3,259.72c-66.39-66.39-66.39-174.040,0-240.43c 33.19-33.18, 76.7-49.79, 120.21-49.79s 87.020,16.6, 120.21,49.79L 588.7,316.28
		C 655.090,382.67, 655.090,490.3, 588.7,556.69z M 263.44,47.59c-24.56-24.57-57.21-38.090-91.93-38.090s-67.37,13.52-91.92,38.070
		c-50.68,50.7-50.68,133.16,0,183.87l 134.36,134.36l 21.22-21.23l-49.51-49.51c-3.91-3.91-3.91-10.23,0-14.14
		c 1.95-1.95, 4.51-2.93, 7.070-2.93s 5.12,0.98, 7.070,2.93l 49.51,49.51l 148.49-148.5L 263.44,47.59zM 468.51,606.5L 468.51,606.5L 468.51,606.5 	zM 100.8,210.21c-29.72-29.71-37.66-75.25-19.76-113.34c 1.71-3.61, 5.3-5.74, 9.060-5.74
		c 1.43,0, 2.87,0.31, 4.25,0.96c 5,2.34, 7.14,8.3, 4.79,13.3c-14.34,30.47-7.99,66.91, 15.79,90.68
		c 3.91,3.91, 3.91,10.23,0,14.14S 104.71,214.11, 100.8,210.21zM 397.78,507.2c-3.91-3.91-3.91-10.23,0-14.14c 1.95-1.95, 4.51-2.93, 7.070-2.93
		s 5.12,0.98, 7.070,2.93c 23.78,23.79, 60.23,30.12, 90.69,15.8c 5.010-2.36, 10.96-0.2, 13.31,4.79
		c 2.34,5, 0.21,10.96-4.79,13.3C 473.070,544.87, 427.5,536.93, 397.78,507.2z" data-tags="pill" />
<glyph unicode="&#xe033;" d="M 540,288.030c-27.62,0-50-22.38-50-50c0-93.73-76.26-170-169.99-170c-93.74,0-170.010,76.27-170.010,170
	c0,86.3, 65.89,158.79, 149.96,168.81l0-78.89 c0-7.95, 4.72-15.15, 12-18.33c 2.58-1.12, 5.29-1.67, 8-1.67
	c 4.95,0, 9.83,1.85, 13.61,5.35l 140.040,130.030C 477.69,447.13, 480,452.43, 480,458s-2.31,10.88-6.4,14.66L 333.56,602.62
	c-5.83,5.41-14.31,6.86-21.6,3.67c-7.29-3.18-12-10.37-12-18.33l0-80.67 C 160.86,496.92, 50,379.090, 50,238.030
	c0-148.87, 121.12-270, 270.010-270c 148.88,0, 269.99,121.13, 269.99,270C 590,265.65, 567.62,288.030, 540,288.030z M 339.96,542.12L 430.61,458
	l-90.64-84.17L 339.97,542.12 z M 320.010,8.030C 193.18,8.030, 90,111.22, 90,238.030c0,119.26, 93.030,218.98, 209.96,229.1l0-20.24 
	C 193.89,436.67, 110,346.22, 110,238.030c0-115.79, 94.21-210, 210.010-210c 115.79,0, 209.99,94.21, 209.99,210c0,5.52, 4.48,10, 10,10s 10-4.48, 10-10
	C 550,111.22, 446.83,8.030, 320.010,8.030z" data-tags="reload" />
<glyph unicode="&#xe034;" d="M 639.94,587.81c-0.040,11-8.94,19.9-19.93,19.94l-3.030,0 c-85.89,0-178.34-12.97-272.41-107.030l-59.77-59.77
		c-96-3.87-211.12-71.11-216.11-74.060c-5.33-3.14-8.91-8.57-9.69-14.71c-0.77-6.13, 1.33-12.29, 5.7-16.66l 71.47-71.48
		l 60.67-60.66c-15.68,9.020-33.49,13.93-52.070,13.93c-27.98,0-54.27-10.9-73.99-30.63c-2.72-2.71-5.42-5.76-7.8-8.81
		c-48.8-57.91-60.92-166.62-62.85-187.81c-0.54-5.92, 1.58-11.76, 5.78-15.96c 3.77-3.77, 8.86-5.86, 14.14-5.86
		c 0.61,0, 1.21,0.040, 1.83,0.080c 10.66,0.98, 105.55,10.64, 168.13,49.92c 10.81,5.18, 20.5,12.010, 28.81,20.31
		c 34.16,34.18, 39.62,86.23, 16.6,126.25l 60.81-60.82l 71.47-71.48c 3.76-3.75, 8.86-5.84, 14.14-5.84c 0.47,0, 0.95,0, 1.43,0.040
		c 5.78,0.41, 11.1,3.32, 14.58,7.97c 3.010,4, 71.93,97.66, 75.17,217.83l 59.88,59.88C 627.44,406.92, 640.21,500.63, 639.94,587.81z
		 M 190.55,66.84c-5.28-5.27-11.54-9.61-18.58-12.87c-0.81-0.37-1.59-0.8-2.33-1.29c-38.52-24.53-94.52-36.27-126.55-41.29
		C 48.6,48.24, 62.54,115.28, 93.98,152.6c 1.55,1.97, 3.18,3.91, 5.050,5.76c 12.22,12.23, 28.47,18.95, 45.75,18.95
		s 33.54-6.72, 45.76-18.95C 215.77,133.13, 215.77,92.070, 190.55,66.84z M 237.64,393.79l-29.96-29.96l-57.35-57.34l-38.4,38.38
		C 139.63,359.14, 188.63,382.090, 237.64,393.79z M 378.56,78.22l-39.9,39.9l 89.74,89.75C 418.030,150.71, 393.65,103.38, 378.56,78.22z
		 M 439.22,275.26c-0.010-0.020-0.020-0.020-0.030-0.020l-86.89-86.91l-41.91-41.91l-51.75,51.76l 105.69,105.68
		c 7.81,7.81, 7.81,20.47,0,28.28s-20.47,7.81-28.28,0L 230.35,226.45l-51.75,51.74l 128.82,128.83c0,0,0,0, 0.010,0.020l 65.42,65.41
		c 77.6,77.58, 154.57,93.22, 226.91,95.1c-1.55-68.5-14.74-146.48-95.14-226.88L 439.22,275.26zM 528.43,496.25c-7.8,7.79-18.040,11.7-28.28,11.7c-10.23,0-20.47-3.91-28.28-11.7
		c-15.63-15.63-15.63-40.96,0-56.58c 7.81-7.79, 18.050-11.7, 28.28-11.7c 10.24,0, 20.48,3.91, 28.28,11.7
		C 544.040,455.29, 544.050,480.63, 528.43,496.25z M 514.28,453.83c-3.77-3.79-8.79-5.86-14.13-5.86s-10.36,2.070-14.14,5.86
		c-3.78,3.77-5.86,8.79-5.86,14.14c0,5.33, 2.080,10.35, 5.86,14.12c 3.78,3.79, 8.8,5.86, 14.14,5.86
		s 10.36-2.070, 14.14-5.84c 3.78-3.79, 5.86-8.81, 5.86-14.14C 520.14,462.62, 518.070,457.6, 514.28,453.83z" data-tags="rocket" />
<glyph unicode="&#xe035;" d="M 580,585.040L 60,585.040 c-33.14,0-60-26.86-60-60l0-420 c0-33.13, 26.86-60, 60-60l 20,0 l0-19.93 c0-22.090, 17.91-40, 40-40l 40,0 
		c 22.090,0, 40,17.91, 40,40l0,19.93 l 239.96,0 l0-19.93 c0-22.090, 17.91-40, 40-40l 40,0 c 22.090,0, 40,17.91, 40,40l0,19.93 L 580,45.040 c 33.13,0, 60,26.87, 60,60l0,420 
		C 640,558.18, 613.13,585.040, 580,585.040z M 180,25.1c0-11.030-8.98-20-20-20l-40,0 c-11.040,0-20,8.97-20,20l0,19.93 l 80,0 L 180,25.1 z M 539.96,25.1
		c0-11.030-8.98-20-20-20l-40,0 c-11.040,0-20,8.97-20,20l0,19.93 l 80,0 L 539.96,25.1 z M 600,105.040c0-11.030-8.98-20-20-20L 60,85.040 c-11.040,0-20,8.97-20,20l0,420 
		c0,11.030, 8.96,20, 20,20l 520,0 c 11.020,0, 20-8.97, 20-20L 600,105.040 zM 319.96,425.040c-60.76,0-110-49.25-110-110s 49.24-110, 110-110c 60.74,0, 110,49.25, 110,110S 380.7,425.040, 319.96,425.040
		z M 319.96,225.040c-49.63,0-90,40.37-90,90s 40.37,90, 90,90s 90-40.37, 90-90S 369.59,225.040, 319.96,225.040zM 319.96,365.040c-27.62,0-50-22.38-50-50s 22.38-50, 50-50s 50,22.38, 50,50S 347.58,365.040, 319.96,365.040z M 319.96,285.040
		c-16.54,0-30,13.46-30,30s 13.46,30, 30,30s 30-13.46, 30-30S 336.5,285.040, 319.96,285.040zM 530,445.030l0,40 c0,11.040-8.96,20-20,20L 130,505.030 c-11.050,0-20-8.96-20-20l0-340 c0-11.040, 8.95-20, 20-20l 380,0 c 11.040,0, 20,8.96, 20,20
		l0,40 c 11.020,0.020, 19.96,8.96, 19.96,19.99l0,80.010 c0,11.030-8.95,19.97-19.96,19.99l0,20.010 c 11.020,0.020, 19.96,8.96, 19.96,20l0,80 
		C 549.96,436.070, 541.020,445.010, 530,445.030z M 529.96,345.040l-40,0 l0,80 l 40,0 L 529.96,345.040 z M 150,165.040l0,300 l 340,0 l0-20 l-0.040,0 c-11.050,0-20-8.96-20-20l0-80 
		c0-11.040, 8.95-20, 20-20L 490,325.040 l0-20 l-0.040,0 c-11.050,0-20-8.96-20-20l0-80.010 c0-11.040, 8.95-20, 20-20L 490,185.030 l0-19.99 L 150,165.040 z M 529.96,205.030l-40,0 l0,80.010 l 40,0 L 529.96,205.030 
		z" data-tags="safe" />
<glyph unicode="&#xe036;" d="M 626.88,416.73l-300,110.020c-4.45,1.62-9.32,1.62-13.77,0l-300-110.020C 5.23,413.84,0,406.34,0,397.96
	c0-8.4, 5.23-15.9, 13.12-18.79L 30,372.98l0-247.7 c-5.96-3.48-10-9.84-10-17.23l0-40.020 c0-11.040, 8.96-20, 20-20s 20,8.96, 20,20l0,40.020 
	c0,7.38-4.040,13.75-10,17.23L 50,365.66 l 59.96-21.99l0-155.63 c0-77.32, 62.68-140, 140-140l 140,0 c 77.32,0, 140,62.68, 140,140L 529.96,343.64 l 96.92,35.53
	C 634.77,382.060, 640,389.56, 640,397.96C 640,406.34, 634.77,413.84, 626.88,416.73z M 489.96,188.040c0-55.14-44.86-100-100-100l-140,0 
	c-55.14,0-100,44.86-100,100L 149.96,329 l 163.15-59.8c 2.23-0.82, 4.55-1.23, 6.88-1.23s 4.66,0.41, 6.88,1.23l 163.080,59.79L 489.95,188.040 z
	 M 320,309.27L 78.1,397.96L 320,486.67l 241.9-88.71L 320,309.27z" data-tags="scholar" />
<glyph unicode="&#xe037;" d="M 639.98,292.1c0,11.040-8.96,20-20,20L 315.030,312.1 L 525.050,522.12c 7.81,7.81, 7.81,20.47,0,28.29
	c-3.33,3.33-7.55,5.15-11.9,5.64c-70.72,19.91-149.77,2.4-205.42-53.26c-51.81-51.81-70.7-123.91-57.010-190.69l-70.82,0 
	c 12.58,16.72, 20.13,37.45, 20.13,59.99c0,55.23-44.78,100-100,100s-100-44.77-100-100s 44.78-100, 100-100c 0.070,0, 0.13,0.010, 0.2,0.010
	l 118.24,0 l-89.26-89.27c-0.040-0.030-0.080-0.060-0.11-0.090c-39.050-39.050-39.050-102.36,0-141.42
	c 19.52-19.53, 45.12-29.29, 70.71-29.29s 51.19,9.77, 70.71,29.29c 39.040,39.050, 39.050,102.36,0,141.42
	c-15.94,15.94-35.93,25.26-56.65,28.19l 60.62,60.62c 37.020-59.61, 102.82-99.45, 178.15-99.45c 78.71,0, 146.97,43.5, 182.91,107.59
	C 638.28,283.11, 639.98,287.38, 639.98,292.1z M 336.010,474.5c 36.6,36.6, 85.84,52.78, 133.79,48.93L 287.080,340.71
	C 283.22,388.66, 299.4,437.9, 336.010,474.5z M 40.020,372.090c0,33.090, 26.91,60, 60,60s 60-26.91, 60-60c0-33.020-26.82-59.88-59.8-59.99l-0.2,0 
	c-0.020,0-0.040-0.010-0.070-0.010C 66.89,312.13, 40.020,339.020, 40.020,372.090z M 199.8,172.030c 16.030,0, 31.090-6.24, 42.43-17.58
	c 23.39-23.39, 23.39-61.46,0-84.84c-11.34-11.34-26.41-17.58-42.43-17.58s-31.090,6.24-42.43,17.58
	c-11.33,11.33-17.57,26.4-17.57,42.42c0,16.010, 6.23,31.050, 17.52,42.37c 0.020,0.020, 0.040,0.030, 0.060,0.040l 0.15,0.15
	C 168.85,165.84, 183.85,172.030, 199.8,172.030z M 452.64,212.090c-51.76,0-98.030,23.37-129.2,60l 258.4,0 
	C 550.66,235.47, 504.39,212.090, 452.64,212.090z" data-tags="scissors" />
<glyph unicode="&#xe038;" d="M 582.55,373.57l-20.11,0 c-6.44,0.040-12.36,2.17-14.55,3.59c-0.98,2.5-1.99,4.96-3.050,7.42
		c-0.17,0.64-0.36,1.25-0.59,1.88c 0.68,2.71, 3.39,8.22, 7.77,12.64l 14.11,14.1c 22.37,22.38, 22.37,58.83-0.010,81.23
		l-39.73,39.75c-10.86,10.84-25.28,16.82-40.63,16.82c-15.35,0-29.78-5.98-40.64-16.84l-14.25-14.26
		c-4.58-4.49-10.28-7.17-12.79-7.71c-2.96,1.31-5.95,2.56-8.97,3.73C 407.7,518.14, 405.6,524.040, 405.55,530.3L 405.55,550.56 
		C 405.55,582.24, 379.77,608, 348.090,608l-56.17,0 c-31.68,0-57.46-25.76-57.46-57.44l0-19.9 c0-6.48-2.15-12.52-3.6-14.75
		c-3.040-1.19-6.040-2.44-8.99-3.75c-2.57,0.57-8.21,3.24-12.67,7.62l-14.34,14.34c-10.85,10.86-25.27,16.84-40.63,16.84
		c-15.34,0-29.77-5.98-40.62-16.84l-39.73-39.71c-10.85-10.86-16.83-25.27-16.83-40.63s 5.98-29.79, 16.83-40.63l 14.080-14.080
		c 4.57-4.59, 7.3-10.35, 7.85-12.97c-1.3-2.95-2.54-5.94-3.72-8.95c-2.19-1.43-8.11-3.55-14.39-3.59L 57.45,373.56 
		C 25.77,373.57,0,347.79,0,316.11l0-56.17 c0-31.68, 25.77-57.46, 57.45-57.46l 19.89,0 c 6.5,0, 12.53-2.15, 14.76-3.61
		c 1.18-3.010, 2.42-5.98, 3.72-8.95c-0.54-2.56-3.22-8.24-7.66-12.75l-14.33-14.32c-22.37-22.4-22.37-58.85, 0.010-81.23
		l 39.73-39.73c 10.85-10.86, 25.28-16.84, 40.63-16.84c 15.34,0, 29.78,5.98, 40.63,16.84l 14.080,14.080
		c 4.61,4.59, 10.4,7.32, 12.97,7.87c 2.96-1.31, 5.95-2.56, 8.96-3.73c 1.46-2.23, 3.6-8.26, 3.6-14.77l0-19.88 
		c0-31.68, 25.78-57.46, 57.46-57.46l 56.17,0 c 31.68,0, 57.46,25.78, 57.46,57.46l0,20.1 c 0.050,6.43, 2.17,12.34, 3.59,14.55
		c 2.96,1.15, 5.89,2.36, 8.79,3.63c 0.050,0.020, 0.11,0.040, 0.16,0.060c 2.59-0.53, 8.42-3.26, 13.040-7.89l 14.040-14.040
		c 10.85-10.86, 25.27-16.86, 40.63-16.86c 15.35,0, 29.78,5.98, 40.63,16.84l 39.73,39.73c 22.4,22.4, 22.4,58.85,0,81.25l-14.24,14.22
		c-4.51,4.59-7.2,10.31-7.72,12.85c 0.020,0.060, 0.040,0.12, 0.060,0.18c 1.27,2.91, 2.49,5.84, 3.65,8.79
		c 2.21,1.46, 8.24,3.61, 14.76,3.61l 19.89,0 c 31.68,0, 57.45,25.78, 57.45,57.46l0,56.17 C 640,347.79, 614.23,373.57, 582.55,373.57z
		 M 600,259.93c0-9.63-7.83-17.46-17.45-17.46l-19.89,0 c-19.1,0-42.48-8.050-50.58-25.64c-0.34-0.66-0.65-1.37-0.93-2.070
		c-1.31-3.44-2.72-6.84-4.23-10.18c-0.38-0.86-0.7-1.74-0.96-2.62c-6.22-17.85, 4.33-39.63, 17.55-53.090l 14.36-14.34
		c 6.81-6.82, 6.81-17.89,0-24.69l-39.74-39.73c-6.58-6.58-18.070-6.6-24.67,0l-14.070,14.080
		c-9.080,9.080-25.53,19.69-41.96,19.69c-4.040,0-7.88-0.64-11.46-1.89c-0.88-0.25-1.75-0.57-2.6-0.96
		c-3.33-1.48-6.7-2.89-10.14-4.2c-0.63-0.23-1.24-0.51-1.84-0.8c-17.55-7.93-25.72-31.21-25.86-50.35l0-20.23 
		c0-9.63-7.83-17.46-17.46-17.46l-56.17,0 c-9.63,0-17.46,7.83-17.46,17.46l0,19.88 c0,19.22-8.13,42.73-25.91,50.7
		c-0.58,0.29-1.16,0.57-1.78,0.8c-3.010,1.15-5.99,2.36-8.93,3.67c-1.050,0.55-2.17,1-3.32,1.35
		c-3.7,1.37-7.71,2.070-11.94,2.070c-16.42,0-32.85-10.61-41.93-19.69l-14.090-14.080c-6.6-6.6-18.090-6.58-24.69,0l-39.73,39.73
		c-6.81,6.8-6.8,17.87-0.010,24.67l 14.41,14.41c 13.27,13.46, 23.92,35.51, 17.33,53.48c-0.22,0.72-0.5,1.46-0.82,2.17
		c-1.49,3.34-2.91,6.72-4.23,10.16c-0.23,0.61-0.49,1.19-0.77,1.76c-7.98,17.81-31.5,25.94-50.71,25.94L 57.45,242.47 
		C 47.83,242.47, 40,250.3, 40,259.93l0,56.17 c0,9.63, 7.83,17.46, 17.45,17.46l 20.39,0 c 19,0.12, 42.28,8.28, 50.2,25.86
		c 0.29,0.59, 0.56,1.19, 0.79,1.8c 1.32,3.44, 2.71,6.78, 4.2,10.12c 0.24,0.55, 0.46,1.090, 0.65,1.66
		c 7.060,18.2-3.81,40.66-17.4,54.32l-14.11,14.12c-3.3,3.3-5.11,7.68-5.11,12.34c0,4.65, 1.81,9.020, 5.11,12.32l 39.73,39.73
		c 6.58,6.6, 18.1,6.58, 24.68,0l 14.43-14.43c 9.49-9.36, 25.39-19.34, 41.57-19.34c 4.51,0, 8.76,0.78, 12.67,2.34
		c 0.48,0.18, 0.96,0.35, 1.43,0.57c 3.31,1.48, 6.68,2.89, 10.1,4.2c 0.61,0.23, 1.2,0.49, 1.77,0.78
		c 17.79,7.97, 25.92,31.5, 25.92,50.7l0,19.9 C 274.45,560.19, 282.29,568, 291.91,568l 56.17,0 c 9.63,0, 17.46-7.81, 17.46-17.44l0-20.39 
		c 0.14-19.12, 8.41-42.56, 26.18-50.33c 0.48-0.23, 0.97-0.45, 1.46-0.64c 3.43-1.31, 6.81-2.71, 10.14-4.22
		c 0.72-0.31, 1.46-0.61, 2.2-0.84c 3.69-1.35, 7.68-2.030, 11.88-2.030c 16.11,0, 31.99,9.92, 41.63,19.38l 14.38,14.39
		c 6.57,6.58, 18.11,6.6, 24.7,0l 39.72-39.71c 6.81-6.82, 6.81-17.89, 0.010-24.69l-14.12-14.12
		c-13.48-13.52-24.3-35.74-17.58-53.87c 0.21-0.7, 0.48-1.39, 0.78-2.070c 1.49-3.34, 2.91-6.72, 4.22-10.18
		c 0.27-0.7, 0.59-1.41, 0.94-2.070c 8.030-17.4, 31.17-25.49, 50.21-25.61l 20.24,0 c 9.62,0, 17.45-7.83, 17.45-17.46L 599.98,259.93 zM 320,388c-55.14,0-100-44.84-100-100c0-55.14, 44.86-100, 100-100s 100,44.86, 100,100C 420,343.16, 375.14,388, 320,388z M 320,228
		c-33.090,0-60,26.91-60,60s 26.91,60, 60,60s 60-26.91, 60-60S 353.090,228, 320,228z" data-tags="settings" />
<glyph unicode="&#xe039;" d="M 523.73,568.040c-97.66,0-195.42,38.13-196.4,38.52c-4.94,1.95-10.45,1.86-15.31-0.25
		c-0.88-0.37-89.51-38.26-195.75-38.26c-42.040,0-76.25-34.21-76.25-76.25l0-62.5 c0-414.94, 274.24-460.63, 277.010-461.040
		c 0.98-0.15, 1.96-0.21, 2.95-0.21c 1.050,0, 2.11,0.080, 3.14,0.24c 2.77,0.44, 276.86,48.92, 276.86,461.010l0,62.5 
		C 599.98,533.83, 565.77,568.040, 523.73,568.040z M 559.98,429.29c0-357.38-210.12-414.58-240.020-420.9
		c-27.78,5.94-239.94,63.16-239.94,420.9l0,62.5 c0,19.98, 16.26,36.25, 36.25,36.25c 97.15,0, 179.050,28.73, 203.99,38.45
		c 25.99-9.44, 113.22-38.45, 203.47-38.45c 19.99,0, 36.25-16.27, 36.25-36.25L 559.98,429.29 zM 325.84,521.36c-2.63,1.88-6.020,2.36-9.060,1.31c-42.49-14.65-109.42-32.52-187.010-34.47
		c-5.42-0.13-9.75-4.57-9.75-9.99l0-48.92 c0-295.33, 150.58-364.63, 196.73-378.83c 0.87-0.27, 1.84-0.4, 2.8-0.4
		c 1.35,0, 2.71,0.24, 3.9,0.67c 3.96,1.43, 6.59,5.19, 6.59,9.39L 330.040,513.21 C 330.040,516.44, 328.48,519.47, 325.84,521.36z
		 M 310.040,74.040c-52.57,21.040-170.020,97.090-170.020,355.25l0,39.24 c 68.41,2.87, 128.12,17.38, 170.020,30.82L 310.040,74.040 z" data-tags="shield" />
<glyph unicode="&#xe03a;" d="M 639.98,337.92l-29.92,79.79L 610.060,418 l0,49.92 l-28.060,70c-4.74,11.82-19.31,28.87-39.85,30L 100.020,567.92 
	c-21.71,0-37.58-19-41.97-29.96l-27.99-70.040c0,0,0-32.3,0-49.92l0-0.080 L 30.020,417.92 l-30.040-80l 0.040,0 l0-21.62 
	c0-22.46, 12.070-42.070, 30.040-52.83L 30.060,58 c0-33.14, 26.87-60, 60-60l 460,0 c 33.13,0, 60,26.86, 60,60L 610.060,263.51 c 17.93,10.78, 29.96,30.35, 29.96,52.79
	l0,21.62 L 639.98,337.92 z M 100.44,527.92l 439.61,0 c 1.44-0.61, 4.050-3.26, 4.82-4.88l 18.21-45.43L 77.010,477.61 L 95,522.63
	C 96.080,524.54, 98.91,527.28, 100.44,527.92z M 70.060,418l0,39.61 l 500,0 L 570.060,418 l0-0.080 l-500,0 L 70.060,418 z M 20.020,334.39l 23.86,63.54l 552.25,0 l 13.54-36.13l0-72.66 
	c-7.64-8.77-18.75-14.45-31.26-14.45l-0.63,0 c-13.95,0-26.89,6.95-34.66,18.59c-3.71,5.57-9.95,8.91-16.64,8.91
	s-12.93-3.34-16.64-8.91c-7.76-11.64-20.71-18.59-34.66-18.59l-0.63,0 c-13.95,0-26.9,6.95-34.67,18.61
	c-3.71,5.55-9.95,8.89-16.64,8.89l-0.010,0 c-6.69,0-12.93-3.34-16.64-8.91c-7.74-11.64-20.69-18.59-34.64-18.59l-0.63,0 
	c-13.95,0-26.89,6.95-34.66,18.59c-3.71,5.57-9.95,8.91-16.64,8.91s-12.94-3.34-16.64-8.91
	c-7.75-11.64-20.7-18.59-34.65-18.59L 268.1,274.69 c-13.95,0-26.89,6.95-34.66,18.59c-3.71,5.57-9.95,8.91-16.64,8.91
	s-12.94-3.34-16.64-8.91c-7.75-11.64-20.7-18.59-34.65-18.59l-0.64,0 c-13.94,0-26.89,6.95-34.67,18.59
	c-3.7,5.57-9.94,8.91-16.63,8.91l-0.010,0 c-6.69,0-12.93-3.34-16.64-8.91c-7.74-11.64-20.69-18.59-34.64-18.59L 61.64,274.69 
	c-22.95,0-41.62,18.67-41.62,41.62L 20.020,334.39 z M 319.98,282.12c 0.010,0.020, 0.030,0.040, 0.040,0.060c 11.040-16.56, 29.89-27.5, 51.3-27.5
	l 0.63,0 c 21.42,0, 40.25,10.94, 51.29,27.5c 11.050-16.56, 29.9-27.5, 51.31-27.5l 0.63,0 c 12.94,0, 24.9,4.040, 34.8,10.86l0-137.62 l-190,0 L 319.98,282.12 z
	 M 130.020,157.92l 110,0 L 240.020,78 l-110,0 L 130.020,157.92 z M 240.020,177.92l-110,0 l0,87.64 c 9.91-6.82, 21.89-10.88, 34.84-10.88l 0.64,0 
	c 21.42,0, 40.25,10.94, 51.29,27.5c 5.82-8.73, 13.84-15.82, 23.22-20.64L 240.010,177.92 z M 550.060,38l-460,0 c-11.030,0-20,8.96-20,20L 70.060,255.19 
	c 16.11,2.030, 30.21,10.31, 39.96,22.3L 110.020,78 c0-11.050, 8.96-20, 20-20l 110,0 c 11.040,0, 20,8.95, 20,20L 260.020,255.23 c 2.65-0.35, 5.33-0.55, 8.080-0.55
	l 0.63,0 c 11.44,0, 22.080,3.2, 31.25,8.61l0-135.37 c0-11.050, 8.96-20, 20-20l 190,0 c 11.040,0, 20,8.95, 20,20L 529.98,277.55 
	c 9.77-12.030, 23.93-20.35, 40.080-22.38L 570.060,58 C 570.060,46.96, 561.080,38, 550.060,38z M 620.020,316.3c0-10.21-3.84-19.45-9.96-26.7l0,71.15 
	l 9.96-26.56L 620.020,316.3 z" data-tags="shop" />
<glyph unicode="&#xe03b;" d="M 320,608C 143.27,608,0,464.74,0,288s 143.27-320, 320-320s 320,143.26, 320,320S 496.73,608, 320,608z M 320,8
		C 165.61,8, 40,133.61, 40,288S 165.61,568, 320,568s 280-125.61, 280-280S 474.39,8, 320,8zM 519.96,308c-11.040,0-20-8.96-20-20c0-99.26-80.75-180-180-180s-180,80.74-180,180c0,11.040-8.96,20-20,20s-20-8.96-20-20
		c0-121.31, 98.69-220, 220-220s 220,98.69, 220,220C 539.96,299.040, 531.010,308, 519.96,308zM 189.98,377.57A40,60 180 1 1 269.98,377.57A40,60 180 1 1 189.98,377.57zM 370.020,377.57A40,60 180 1 1 450.020,377.57A40,60 180 1 1 370.020,377.57z" data-tags="smiley" />
<glyph unicode="&#xe03c;" d="M 80.73-32.13c-21.37,0-41.46,8.32-56.57,23.43c-15.11,15.11-23.43,35.21-23.43,56.57
	s 8.32,41.46, 23.43,56.56l 247.23,247.23c-25.85,69.15-9.22,148.33, 43.42,200.96c 35.79,35.8, 83.41,55.51, 134.070,55.51
	c 27.46,0, 55.11-6.070, 79.95-17.55c 5.94-2.74, 10.16-8.21, 11.3-14.65c 1.15-6.44-0.92-13.030-5.55-17.65l-83.94-83.93
	l 9.43-47.14l 47.13-9.43l 83.21,83.21c 4.65,4.67, 11.28,6.73, 17.82,5.52c 6.48-1.22, 11.95-5.55, 14.62-11.59
	c 31.91-72.35, 16.46-155.19-39.36-211.010c-35.81-35.81-83.45-55.54-134.12-55.54l0,0c-22.010,0-43.48,3.71-63.97,11.040L 137.29-8.69
	C 122.19-23.81, 102.1-32.13, 80.73-32.13z M 448.88,568.13c-39.98,0-77.55-15.55-105.79-43.79
	c-44.18-44.18-56.21-112.080-29.94-168.97c 3.52-7.6, 1.91-16.6-4.010-22.52L 52.44,76.15c-7.55-7.56-11.71-17.6-11.71-28.28
	s 4.16-20.73, 11.71-28.28C 60,12.030, 70.050,7.87, 80.73,7.87s 20.72,4.16, 28.28,11.72l 257.41,257.4
	c 5.83,5.83, 14.62,7.5, 22.21,4.16c 19.22-8.48, 39.66-12.77, 60.75-12.77c 39.99,0, 77.58,15.57, 105.84,43.82
	c 36.73,36.74, 51.31,88.31, 40.53,137.56l-67.83-67.83c-4.74-4.73-11.49-6.79-18.070-5.47l-70.7,14.15
	c-7.91,1.58-14.1,7.77-15.68,15.69L 409.33,477c-1.32,6.56, 0.74,13.33, 5.47,18.060l 68.96,68.96
	C 472.33,566.73, 460.59,568.13, 448.88,568.13z" data-tags="spanner" />
<glyph unicode="&#xe03d;" d="M 560.96,478.9c-7.81,7.81-20.47,7.81-28.28,0s-7.81-20.47,0-28.28c 89.68-89.69, 89.68-235.61,0-325.27
		c-7.81-7.81-7.81-20.48,0-28.28c 3.91-3.91, 9.020-5.86, 14.14-5.86s 10.23,1.95, 14.14,5.86
		C 666.24,202.33, 666.24,373.62, 560.96,478.9zM 504.39,422.33c-7.81,7.81-20.47,7.81-28.28,0c-7.81-7.81-7.81-20.47,0-28.28
		c 58.49-58.5, 58.49-153.66, 0.010-212.15c-7.81-7.81-7.81-20.47,0-28.28c 3.91-3.91, 9.020-5.86, 14.14-5.86
		s 10.23,1.95, 14.14,5.86C 578.48,227.71, 578.47,348.25, 504.39,422.33zM 447.82,365.76c-7.81,7.8-20.47,7.8-28.28-0.010s-7.81-20.47,0-28.28c 27.29-27.29, 27.29-71.7, 0.010-99
		c-7.81-7.81-7.81-20.47,0-28.28c 3.91-3.91, 9.020-5.86, 14.14-5.86s 10.23,1.95, 14.14,5.86
		C 490.72,253.080, 490.71,322.87, 447.82,365.76zM 377.79,606.44C 375.3,607.48, 372.67,608, 370.060,608c-5.14,0-10.21-1.98-14.020-5.72L 178.38,428L 60.080,428 
		c-33.13,0-60-26.87-60-60l0-160 c0-33.14, 26.87-60, 60-60L 182,148 l 173.9-174.14C 359.72-29.97, 364.84-32, 370.040-32
		c 2.58,0, 5.18,0.49, 7.65,1.51c 7.48,3.1, 12.35,10.39, 12.35,18.49L 390.040,588 C 390.040,596.050, 385.21,603.32, 377.79,606.44z M 140.080,388l0-200 l-40,0 
		L 100.080,388 L 140.080,388 z M 40.080,208L 40.080,368 c0,11.020, 8.97,20, 20,20l 20,0 l0-200 l-20,0 C 49.060,188, 40.080,196.96, 40.080,208z M 350.040,36.32L 210.3,176.26
		C 202.8,183.78, 192.61,188, 182,188l-21.91,0 L 160.090,388 l 18.3,0 c 10.48,0, 20.54,4.1, 28.010,11.45L 350.040,540.36L 350.040,36.32 z" data-tags="speaker" />
<glyph unicode="&#xe03e;" d="M 619.96,308L 488.72,308 c-3.76,31.95-16.37,61.13-35.31,85.14l 92.84,92.83c 7.81,7.81, 7.81,20.47,0,28.28
	s-20.47,7.81-28.28,0l-92.85-92.85c-24,18.95-53.18,31.54-85.12,35.29L 340,587.96 c0,11.050-8.96,20-20,20s-20-8.95-20-20l0-131.27 
	c-31.93-3.75-61.11-16.35-85.12-35.29l-92.85,92.85c-7.81,7.81-20.47,7.81-28.28,0s-7.81-20.47,0-28.28l 92.84-92.83
	c-18.95-24-31.55-53.18-35.31-85.14L 20.040,308 c-11.040,0-20-8.95-20-20c0-11.040, 8.96-20, 20-20l 131.23,0 c 3.75-31.95, 16.35-61.13, 35.29-85.16
	l-92.81-92.81c-7.81-7.79-7.81-20.47,0-28.28c 3.91-3.91, 9.020-5.86, 14.14-5.86s 10.23,1.95, 14.14,5.86l 92.8,92.81
	c 24.010-18.96, 53.2-31.56, 85.17-35.31l0-131.21 c0-11.040, 8.96-20, 20-20s 20,8.96, 20,20L 340,119.25 c 31.96,3.75, 61.15,16.35, 85.17,35.31
	l 92.8-92.81c 3.91-3.91, 9.020-5.86, 14.14-5.86s 10.23,1.95, 14.14,5.86c 7.81,7.81, 7.81,20.49,0,28.28l-92.81,92.81
	c 18.95,24.020, 31.54,53.2, 35.29,85.16l 131.23,0 c 11.040,0, 20,8.96, 20,20C 639.96,299.050, 631.010,308, 619.96,308z M 320,157.96
	c-71.68,0-130,58.32-130,130s 58.32,130, 130,130s 130-58.32, 130-130S 391.68,157.96, 320,157.96z" data-tags="sun" />
<glyph unicode="&#xe03f;" d="M 499.98,608L 140.020,608 c-33.13,0-60-26.87-60-60l0-520 c0-33.13, 26.87-60, 60-60l 359.96,0 c 33.13,0, 60,26.87, 60,60L 559.98,548 
		C 559.98,581.13, 533.12,608, 499.98,608z M 140.020,568l 359.96,0 c 11.030,0, 20-8.97, 20-20l0-20.080 L 120.020,527.92 L 120.020,548 C 120.020,559.030, 128.99,568, 140.020,568z
		 M 519.98,507.92l0-399.93 L 120.020,107.99 L 120.020,507.92 L 519.98,507.92 z M 499.98,8L 140.020,8 c-11.030,0-20,8.97-20,20l0,59.99 l 399.96,0 L 519.98,28 
		C 519.98,16.97, 511.010,8, 499.98,8zM 320,68.080c-11.050,0-20-8.96-20-20s 8.95-20.010, 20-20.010c 11.040,0, 20,8.96, 20,20.010S 331.040,68.080, 320,68.080z" data-tags="tablet" />
<glyph unicode="&#xe040;" d="M 300.52,367.48c-3.9,3.9-9.010,5.85-14.14,5.85c-5.12,0-10.23-1.95-14.14-5.85L 102.53,197.78
		c-7.81-7.82-7.81-20.47,0-28.28l 98.99-99c 3.91-3.91, 9.020-5.86, 14.14-5.86s 10.23,1.95, 14.14,5.86L 399.51,240.2
		c 7.81,7.81, 7.81,20.47,0,28.29L 300.52,367.48z M 215.66,84.64l-98.99,98.99l 169.69,169.71c0,0, 0.010,0, 0.020,0l 98.99-98.99
		L 215.66,84.64zM 631.070,599.1c-11.7,11.7-30.73,11.7-42.43,0l-118.4-118.4l-26.44,26.44
		c-0.55,0.48-1.12,1.020-1.79,1.68c-12.22,12.22-28.25,14.2-35.8,14.22l-70.43,0 c-15-0.010-28.32-7.19-35.27-14.14
		L 17.73,226.11c-23.44-23.43-23.44-61.42,0-84.85L 173.29-14.3c 11.71-11.71, 27.070-17.57, 42.43-17.57c 15.35,0, 30.7,5.86, 42.42,17.57
		l 282.79,282.79c 13.27,13.28, 14.16,28.1, 14.17,37.92l0,67.78 c-0.010,19.18-6.97,28.63-14.15,35.8l-28.28,28.28l 118.4,118.41
		C 642.77,568.37, 642.77,587.4, 631.070,599.1z M 515.11,374.19l0-67.74 c-0.010-6.94-0.76-7.98-2.45-9.68L 229.86,13.98
		c-5.1-5.1-11.050-5.86-14.14-5.86c-3.11,0-9.050,0.76-14.15,5.86L 46.020,169.55c-5.1,5.090-5.86,11.040-5.86,14.14
		c0,3.090, 0.76,9.040, 5.86,14.14l 282.62,282.62c 1.010,0.88, 4.26,2.59, 7.16,2.59l 70.35,0 c 1.67,0, 5.71-0.62, 7.6-2.5
		c 0.91-0.91, 1.74-1.7, 2.52-2.41l 25.7-25.7l-28.34-28.34c-0.060-0.060-0.090-0.13-0.15-0.19
		c-2.29,0.31-4.59,0.66-6.89,0.66c-12.79,0-25.59-4.89-35.35-14.65c-19.52-19.53-19.53-51.18,0-70.71
		c 9.77-9.77, 22.56-14.64, 35.36-14.64c 12.79,0, 25.6,4.88, 35.35,14.64c 19.52,19.53, 19.52,51.18,0,70.71
		c-2.43,2.43-5.050,4.56-7.81,6.38l 21.98,21.98l 56.57-56.57C 514.79,379.6, 515.11,379.27, 515.11,374.19z M 413.62,381.65
		c 6.27-6.27, 14.6-8.94, 22.81-8.46c-0.32-7.22-3.13-14.35-8.63-19.85c-5.66-5.66-13.2-8.78-21.21-8.78
		c-8.020,0-15.56,3.12-21.22,8.78s-8.79,13.2-8.79,21.21c0,8.020, 3.13,15.55, 8.79,21.22c 5.28,5.28, 12.23,8.24, 19.63,8.63
		C 404.59,396.21, 407.38,387.89, 413.62,381.65z M 616.93,570.82l-118.4-118.41l-14.14,14.15l 118.4,118.4c 3.9,3.9, 10.23,3.9, 14.14,0
		C 620.83,581.060, 620.83,574.71, 616.93,570.82z" data-tags="tag" />
</font>
</defs>
</svg>
